<?xml version="1.0" encoding="UTF-8"?>
<svg version="1.1" xmlns="http://www.w3.org/2000/svg" width="512" height="512">
<path d="M0 0 C-2.30253698 15.42899585 -5.14235197 30.73992549 -8.0625 46.0625 C-8.51392472 48.44461356 -8.96509796 50.82677478 -9.41601562 53.20898438 C-11.23706691 62.81444731 -13.06868786 72.41600782 -15 82 C-8.07 81.01 -8.07 81.01 -1 80 C-0.63648438 77.77056641 -0.63648438 77.77056641 -0.265625 75.49609375 C1.38297413 65.58870301 3.15677514 55.91648975 5.91796875 46.2578125 C8.58209661 36.34091729 10.14230112 26.09235054 12 16 C10.84371094 16.05220703 10.84371094 16.05220703 9.6640625 16.10546875 C8.66117187 16.13253906 7.65828125 16.15960938 6.625 16.1875 C5.12839844 16.23970703 5.12839844 16.23970703 3.6015625 16.29296875 C2.31378906 16.14794922 2.31378906 16.14794922 1 16 C-1.45379273 12.31931091 -1.06892794 11.19946039 -0.375 6.9375 C-0.21773438 5.87402344 -0.06046875 4.81054688 0.1015625 3.71484375 C1 1 1 1 2.50512695 -0.15527344 C6.23309846 -1.41750863 9.92606495 -1.26443399 13.81640625 -1.23046875 C15.09571266 -1.22978142 15.09571266 -1.22978142 16.40086365 -1.2290802 C18.20044347 -1.22606404 20.00002082 -1.21819676 21.79956055 -1.20581055 C24.55592074 -1.1875436 27.31194493 -1.18530105 30.06835938 -1.18554688 C31.81771124 -1.1806317 33.56706083 -1.17480338 35.31640625 -1.16796875 C36.14145157 -1.16685593 36.96649689 -1.1657431 37.81654358 -1.16459656 C41.12609429 -1.13709204 43.83890314 -1.05369895 47 0 C46.67 2.64 46.34 5.28 46 8 C46.99 5.03 47.98 2.06 49 -1 C51.45840605 -1.02691685 53.91651882 -1.04679802 56.375 -1.0625 C57.07367188 -1.07087891 57.77234375 -1.07925781 58.4921875 -1.08789062 C63.7734375 -1.11328125 63.7734375 -1.11328125 66 0 C65.36406337 7.18234313 63.95835152 13.98712793 62.3125 21 C59.8001872 31.97610138 57.6234487 42.98315742 55.625 54.0625 C55.49203522 54.79621826 55.35907043 55.52993652 55.22207642 56.28588867 C53.67427062 63.6031203 53.67427062 63.6031203 53 71 C54.32 70.67 55.64 70.34 57 70 C57.12955078 68.16115234 57.12955078 68.16115234 57.26171875 66.28515625 C61.05597492 17.82735699 61.05597492 17.82735699 75 3 C82.61037084 -2.0917329 92.48552321 -2.27333578 101.23828125 -0.5625 C106.03144992 1.13795895 109.33364895 4.81130663 112 9 C112.875 11.875 112.875 11.875 113 15 C113.061875 16.27875 113.12375 17.5575 113.1875 18.875 C113.03360678 30.34004473 112.11278615 46.8331818 106.90625 57.171875 C105.70390141 59.25723166 105.70390141 59.25723166 106 63 C106.99 63 107.98 63 109 63 C109.17789063 61.39282104 109.17789063 61.39282104 109.359375 59.75317383 C110.06769086 54.10437033 111.16809072 48.53633059 112.25 42.94921875 C112.57726074 41.24557915 112.57726074 41.24557915 112.91113281 39.50752258 C113.37048726 37.11960028 113.83112256 34.73192405 114.29296875 32.34448242 C115.00090943 28.68279613 115.70386423 25.0201773 116.40625 21.35742188 C116.85387097 19.03379718 117.30177762 16.71022751 117.75 14.38671875 C117.96043945 13.28986252 118.17087891 12.19300629 118.38769531 11.06291199 C118.68305176 9.54036552 118.68305176 9.54036552 118.984375 7.98706055 C119.15678711 7.09407761 119.32919922 6.20109467 119.50683594 5.28105164 C120 3 120 3 121 0 C126.09914442 -1.23615622 130.97560615 -1.67479795 136 0 C136.87548828 2.57275391 136.87548828 2.57275391 137.5703125 5.9765625 C137.95509766 7.81927734 137.95509766 7.81927734 138.34765625 9.69921875 C138.60688602 11.00778969 138.86599964 12.31638364 139.125 13.625 C139.38925781 14.89730469 139.65351563 16.16960937 139.92578125 17.48046875 C141.12269177 23.30705345 142.19814474 29.10444573 143 35 C143.17015625 33.89785156 143.3403125 32.79570312 143.515625 31.66015625 C144.80349526 23.52381458 146.24044436 15.45896413 148.125 7.4375 C148.38071777 6.3403064 148.38071777 6.3403064 148.64160156 5.22094727 C149.86873692 0.13126308 149.86873692 0.13126308 151 -1 C153.69654854 -1.07319621 156.36691458 -1.09242537 159.0625 -1.0625 C159.82111328 -1.05798828 160.57972656 -1.05347656 161.36132812 -1.04882812 C163.24091871 -1.0370068 165.12046899 -1.01907078 167 -1 C168.66688685 4.09442293 167.21785681 8.4052996 166 13.4375 C163.49311194 24.32260071 161.42608338 35.26155855 159.4375 46.25 C155.57993022 67.47880358 155.57993022 67.47880358 153.625 76.8125 C153.4695874 77.56370117 153.3141748 78.31490234 153.15405273 79.08886719 C152.12822282 83.87177718 152.12822282 83.87177718 151 85 C148.81360547 85.07258946 146.62499611 85.08373783 144.4375 85.0625 C142.64119141 85.04896484 142.64119141 85.04896484 140.80859375 85.03515625 C139.41833984 85.01775391 139.41833984 85.01775391 138 85 C135.22766057 78.3008572 133.7180543 71.59996008 132.3125 64.5 C131.97508789 62.83710938 131.97508789 62.83710938 131.63085938 61.140625 C131.08136148 58.42820985 130.53790296 55.71473399 130 53 C127.87146659 59.94279689 128.13516704 65.2614874 129.5625 72.3125 C129.95057222 74.40788688 130.33299882 76.50432418 130.7109375 78.6015625 C130.91944336 79.75817383 131.12794922 80.91478516 131.34277344 82.10644531 C132.63694533 89.77340421 133.64537208 97.48293187 134.6875 105.1875 C135.0074347 107.55031724 135.32763795 109.91309391 135.64938354 112.27566528 C135.84346577 113.70282646 136.03597281 115.1302031 136.22659302 116.55783081 C136.59862598 119.30292134 137.00362886 122.01764596 137.56176758 124.73168945 C138.16112525 127.83399149 138.06176541 130.8499641 138 134 C131.64038146 135.97512382 125.26237938 137.38686706 118.69921875 138.45703125 C117.91492996 138.5861087 117.13064117 138.71518616 116.32258606 138.84817505 C108.73878513 140.07627072 101.13346766 141.10433677 93.5133667 142.07772827 C90.26671042 142.49268719 87.02109473 142.9155435 83.77539062 143.33787537 C82.08174883 143.55822848 80.38806376 143.77824918 78.69433594 143.99794006 C70.21704684 145.09825226 61.74335328 146.22471939 53.27139282 147.36529541 C51.69693494 147.57698756 50.12237309 147.78790815 48.54769897 147.99798584 C40.64583363 149.05230582 32.76729936 150.17062427 24.90917969 151.51977539 C21.76155071 152.03936134 18.60912862 152.49111938 15.44921875 152.9296875 C4.77359312 154.4154262 -5.56669342 155.94528758 -15.9140625 158.984375 C-21.66106846 160.52943195 -27.56383084 161.34092663 -33.4375 162.25 C-34.55261963 162.4253125 -35.66773926 162.600625 -36.81665039 162.78125 C-42.61251846 163.64720393 -48.14071273 164.19934392 -54 164 C-60.13045724 140.22125675 -63.1080263 115.3606255 -66 91 C-62.57412664 88.99104227 -59.43607237 88.48012738 -55.51953125 87.96484375 C-54.27365234 87.79533203 -53.02777344 87.62582031 -51.74414062 87.45117188 C-50.44669922 87.28166016 -49.14925781 87.11214844 -47.8125 86.9375 C-45.23492767 86.59758995 -42.65841582 86.2512988 -40.08203125 85.90234375 C-38.93968018 85.75273193 -37.7973291 85.60312012 -36.62036133 85.44897461 C-34.08099597 85.27350743 -34.08099597 85.27350743 -33 84 C-33.02682861 82.91581787 -33.05365723 81.83163574 -33.08129883 80.71459961 C-33.14669087 74.85474122 -31.8689178 69.28492642 -30.69921875 63.56640625 C-30.46217728 62.37506577 -30.2251358 61.18372528 -29.98091125 59.95628357 C-29.22360687 56.15688049 -28.45600288 52.35965224 -27.6875 48.5625 C-26.93350637 44.80606939 -26.18170733 41.04920894 -25.43118286 37.29208374 C-24.94650911 34.8664922 -24.46026367 32.44121413 -23.97238159 30.01626587 C-22.37497667 22.03577463 -20.92687981 14.04563953 -19.65161133 6.00756836 C-19 3 -19 3 -17 0 C-14.86328125 -0.546875 -14.86328125 -0.546875 -12.3125 -0.75 C-11.48363281 -0.82734375 -10.65476562 -0.9046875 -9.80078125 -0.984375 C-6.4601122 -1.00301193 -3.29960285 -0.49715728 0 0 Z M86.5625 16.75 C79.6344926 24.18310732 78.8106884 37.3145566 77.25 46.875 C77.02957031 48.15375 76.80914062 49.4325 76.58203125 50.75 C75.20416543 58.8273449 75.20416543 58.8273449 75 67 C75.33 67.33 75.66 67.66 76 68 C81.1761903 67.63252506 81.1761903 67.63252506 86 66 C91.85455749 53.06093598 94.94397108 36.3413377 95.25 22.1875 C95.27578125 21.45917969 95.3015625 20.73085937 95.328125 19.98046875 C94.90202833 17.40867099 94.07477548 16.53669118 92 15 C88.90605337 14.70839661 88.90605337 14.70839661 86.5625 16.75 Z M44 10 C43.34 11.65 42.68 13.3 42 15 C36.06 15.495 36.06 15.495 30 16 C29.67386719 17.73765625 29.34773438 19.4753125 29.01171875 21.265625 C28.57049496 23.59378459 28.12907839 25.92190764 27.6875 28.25 C27.47416016 29.38953125 27.26082031 30.5290625 27.04101562 31.703125 C25.79564844 38.24594962 24.36834932 44.6965544 22.71166992 51.14697266 C21.60313984 55.59098039 20.69864097 60.06973078 19.8125 64.5625 C19.63525391 65.43712891 19.45800781 66.31175781 19.27539062 67.21289062 C19.10845703 68.05142578 18.94152344 68.88996094 18.76953125 69.75390625 C18.62104736 70.49970947 18.47256348 71.2455127 18.31958008 72.01391602 C17.92056694 74.15837816 17.92056694 74.15837816 18 77 C19.73007151 76.91213297 21.45911665 76.80394326 23.1875 76.6875 C24.15042969 76.62949219 25.11335938 76.57148438 26.10546875 76.51171875 C29.63288266 75.88811386 31.32647194 75.43628666 34 73 C35.27715954 69.73651159 35.83356891 66.38030082 36.4375 62.9375 C36.73382324 61.39292114 36.73382324 61.39292114 37.03613281 59.81713867 C37.71728716 56.21581141 38.36080143 52.60900649 39 49 C39.26213482 47.5399676 39.52468303 46.08000937 39.78759766 44.62011719 C41.36356855 35.8550714 42.90486381 27.08447756 44.41503906 18.30786133 C44.90638767 15.52936287 45.4319845 12.76366434 46 10 C45.34 10 44.68 10 44 10 Z M111.4375 75.375 C107.68822756 77.62545828 104.65192438 79.33182063 100.3125 79.9375 C94.5324642 80.83732242 90.96237114 84.9720577 87 89 C88.9254644 91.2236068 88.9254644 91.2236068 92 92 C91.58997722 102.55808656 91.58997722 102.55808656 87 107 C87.99 107.66 88.98 108.32 90 109 C90.6875 112.125 90.6875 112.125 91 115 C90.0925 115.0825 89.185 115.165 88.25 115.25 C84.44202246 116.12876405 83.66838359 117.25313454 81 120 C78.39994917 121.48072393 75.72121005 122.75828279 73 124 C73.62776095 115.09570652 74.43723731 106.21753301 75.33935547 97.3371582 C76.54359792 89.47843479 76.54359792 89.47843479 75 82 C72.97023321 82.64203676 72.97023321 82.64203676 71 84 C70.17147283 86.27820261 70.17147283 86.27820261 69.953125 88.98046875 C69.76943359 90.4799707 69.76943359 90.4799707 69.58203125 92.00976562 C69.47246094 93.05841797 69.36289062 94.10707031 69.25 95.1875 C69.06244141 96.73147461 69.06244141 96.73147461 68.87109375 98.30664062 C68.25767187 103.56791288 67.85019676 108.70445537 68 114 C65.69 113.67 63.38 113.34 61 113 C60.95512451 112.43079834 60.91024902 111.86159668 60.86401367 111.27514648 C60.65087051 108.66142202 60.41932436 106.04963116 60.1875 103.4375 C60.11724609 102.54224609 60.04699219 101.64699219 59.97460938 100.72460938 C59.47072948 95.22224093 58.47745592 90.94812429 56 86 C53.5246954 86.53230065 53.5246954 86.53230065 51 88 C49.51346789 90.92288323 49.51346789 90.92288323 48.5625 94.4375 C47.08003417 99.10556304 45.40604576 103.37637225 42.9375 107.625 C40.2551467 112.29682251 38.5329685 116.92757268 36.94921875 122.06640625 C35.75073177 125.77037219 34.2283385 129.29366878 32.63671875 132.84375 C31.90728029 135.31399557 32.15494617 136.60113751 33 139 C34.32 139 35.64 139 37 139 C37.67354499 137.56570999 38.33859701 136.12742943 39 134.6875 C39.37125 133.88699219 39.7425 133.08648437 40.125 132.26171875 C41.18040667 129.93786041 41.18040667 129.93786041 41 127 C42.12148438 126.70996094 42.12148438 126.70996094 43.265625 126.4140625 C44.74289062 126.02347656 44.74289062 126.02347656 46.25 125.625 C47.22453125 125.36976563 48.1990625 125.11453125 49.203125 124.8515625 C52.27720803 124.00081692 52.27720803 124.00081692 56 122 C56.66 125.96 57.32 129.92 58 134 C59.65 134.33 61.3 134.66 63 135 C63 134.01 63 133.02 63 132 C63.556875 132.515625 64.11375 133.03125 64.6875 133.5625 C66.94085007 135.29476698 66.94085007 135.29476698 69.75 134.6875 C70.4925 134.460625 71.235 134.23375 72 134 C72 133.34 72 132.68 72 132 C72.73089844 131.7421875 73.46179688 131.484375 74.21484375 131.21875 C77.10154736 129.95556413 79.13429812 128.49323702 81.5625 126.5 C84.28147518 124.27581233 86.79507995 122.45347848 90 121 C90 123.31 90 125.62 90 128 C94.49851508 128 94.84822636 127.6618698 97.9375 124.75 C100.24995458 122.61043922 102.49941423 120.61503486 105 118.6875 C105.99 117.8521875 105.99 117.8521875 107 117 C107 116.34 107 115.68 107 115 C107.68707031 114.81824219 108.37414062 114.63648438 109.08203125 114.44921875 C109.98308594 114.19785156 110.88414062 113.94648438 111.8125 113.6875 C112.70582031 113.44386719 113.59914063 113.20023438 114.51953125 112.94921875 C117.05247738 111.9799181 118.2716496 111.04990396 120 109 C119.67 108.01 119.34 107.02 119 106 C114.22502097 106.52659977 111.0221299 107.87678765 106.9375 110.375 C105.93589844 110.98085938 104.93429687 111.58671875 103.90234375 112.2109375 C102.94457031 112.80132812 101.98679687 113.39171875 101 114 C99.33433397 115.00166583 97.6680154 116.00225134 96 117 C95.82683822 112.9043475 96.20079084 109.7108689 98 106 C100.92970565 103.65420608 104.25433449 102.13377505 107.67797852 100.63867188 C109.49075582 99.84207857 111.25053064 98.92740466 113 98 C113.75123587 95.95449537 113.75123587 95.95449537 114 94 C109.82366356 92.60788785 108.21039485 94.0464421 104.3125 95.9375 C102.54326172 96.78634766 102.54326172 96.78634766 100.73828125 97.65234375 C99.83464844 98.09707031 98.93101562 98.54179687 98 99 C98.33 94.71 98.66 90.42 99 86 C101.97 85.505 101.97 85.505 105 85 C108.40679477 83.54194003 108.40679477 83.54194003 111.75 81.6875 C112.87921875 81.09324219 114.0084375 80.49898437 115.171875 79.88671875 C117.93230822 78.04515902 119.0893403 77.15478538 120 74 C119.505 73.01 119.505 73.01 119 72 C115.91420005 72 114.02838654 73.75362784 111.4375 75.375 Z M43 88 C38.10701928 95.26533501 34.59588888 103.04137561 31 111 C28.33738488 110.6392586 27.24777511 110.28959904 25.47265625 108.21484375 C25.00730469 107.46332031 24.54195313 106.71179688 24.0625 105.9375 C23.55589844 105.133125 23.04929687 104.32875 22.52734375 103.5 C22.02332031 102.675 21.51929688 101.85 21 101 C20.04188744 99.47902757 19.08357296 97.95818231 18.125 96.4375 C17.41525792 95.29253872 16.70635877 94.14705163 16 93 C13.53199953 94.15173355 11.95216435 95.04783565 10 97 C9.175 96.5875 8.35 96.175 7.5 95.75 C3.26436973 94.84236494 1.64146854 95.45363931 -2.0390625 97.51953125 C-5.45953913 100.10192297 -7.69774947 103.42931207 -10 107 C-10.66 107.99 -11.32 108.98 -12 110 C-13.258125 109.608125 -14.51625 109.21625 -15.8125 108.8125 C-21.14151671 107.21762881 -26.50197112 105.75051086 -31.875 104.3125 C-32.70749268 104.08602783 -33.53998535 103.85955566 -34.39770508 103.6262207 C-35.19200928 103.41570068 -35.98631348 103.20518066 -36.8046875 102.98828125 C-37.51608887 102.79790283 -38.22749023 102.60752441 -38.96044922 102.41137695 C-41.30673521 101.86818799 -41.30673521 101.86818799 -45 102 C-43.63016497 105.16115776 -43.0109362 105.9927092 -40 108 C-39.671875 109.82128906 -39.671875 109.82128906 -39.75 112.015625 C-39.77707031 112.82193359 -39.80414063 113.62824219 -39.83203125 114.45898438 C-40.10388032 118.57149178 -40.52885544 122.65610887 -41 126.75 C-43.08549956 139.66204223 -43.08549956 139.66204223 -41 152 C-38.92064793 151.5899433 -38.92064793 151.5899433 -37 150 C-36.2963941 146.55783533 -36.2963941 146.55783533 -36.17578125 144.265625 C-35.95926756 141.47500415 -35.48416187 138.75539278 -35 136 C-34.5467334 136.32798584 -34.0934668 136.65597168 -33.62646484 136.99389648 C-31.55052439 138.48642517 -29.46305139 139.96196807 -27.375 141.4375 C-26.66214844 141.95376953 -25.94929688 142.47003906 -25.21484375 143.00195312 C-21.15678058 145.85004333 -18.0972254 147.68644828 -13 148 C-13.29590879 144.86477595 -13.98092259 144.01674711 -16.3984375 141.89453125 C-17.38070312 141.20746094 -18.36296875 140.52039063 -19.375 139.8125 C-20.35210937 139.11769531 -21.32921875 138.42289063 -22.3359375 137.70703125 C-24.94348278 135.88241361 -24.94348278 135.88241361 -28 135 C-26.62456232 130.82192316 -24.7565839 128.37645833 -21.625 125.3125 C-20.85414063 124.54550781 -20.08328125 123.77851563 -19.2890625 122.98828125 C-17.23491507 121.20404739 -15.48541197 120.06112338 -13 119 C-13.165 119.680625 -13.33 120.36125 -13.5 121.0625 C-14.75589441 128.44087965 -13.68770036 135.06123573 -11 142 C-8.67443138 145.05995871 -7.13242345 146.52319013 -3.625 148 C0.15445169 148 2.95746475 147.17611793 6 145 C14.97162547 134.87816614 15.94666259 122.94765605 16 110 C15.60548343 107.63335954 15.60548343 107.63335954 15 106 C19.5565527 109.71274665 21.57400393 114.79007402 24 120 C24.66 120 25.32 120 26 120 C26 121.32 26 122.64 26 124 C25.34 124 24.68 124 24 124 C22.98609147 126.20283698 21.98895615 128.41098556 21 130.625 C20.71382813 131.24246094 20.42765625 131.85992187 20.1328125 132.49609375 C18.36170081 136.50217971 17.67744035 139.63200469 18 144 C19.98 144.495 19.98 144.495 22 145 C25.11480966 141.43739529 26.87001965 138.26544591 28.4375 133.8125 C29.88404951 129.86416729 31.3700294 126.13190484 33.375 122.4375 C36.41094284 116.61540708 38.4046631 110.42422134 40.50146484 104.21850586 C42.14174734 99.37255925 43.91359491 94.67228291 46 90 C45.01 89.34 44.02 88.68 43 88 Z " fill="#FFFFFF" transform="translate(344,187)"/>
<path d="M0 0 C5.28 0 10.56 0 16 0 C20.38297872 24.91489362 20.38297872 24.91489362 22 36 C23.32 33.69 24.64 31.38 26 29 C26.66 29 27.32 29 28 29 C28.0928125 27.7625 28.0928125 27.7625 28.1875 26.5 C29.06444673 22.72238333 30.41936075 20.47140777 32.53125 17.28515625 C36.08049764 11.76305553 39.06655709 5.86688582 42 0 C47.28 0 52.56 0 58 0 C58.19825576 6.57548287 57.55806231 12.40437384 56.125 18.8125 C55.95097656 19.64458984 55.77695313 20.47667969 55.59765625 21.33398438 C54.75653881 25.21870084 53.80738799 28.45055131 52 32 C51.65591871 34.18103053 51.65591871 34.18103053 51.5625 36.5 C51.26064144 40.29060512 50.62028137 43.76508751 49.62890625 47.43359375 C47.83396846 54.416713 46.58954016 61.4589395 45.375 68.5625 C44.94731714 71.04331518 44.51772353 73.52380194 44.0859375 76.00390625 C43.9007959 77.08486572 43.7156543 78.1658252 43.52490234 79.27954102 C43 82 43 82 42 85 C36.39 85 30.78 85 25 85 C25.61068946 74.49614137 27.15350162 64.34735882 29 54 C28.43410156 55.07121094 27.86820313 56.14242187 27.28515625 57.24609375 C26.54436633 58.6432798 25.80347571 60.04041247 25.0625 61.4375 C24.68931641 62.14455078 24.31613281 62.85160156 23.93164062 63.58007812 C21.11328125 68.88671875 21.11328125 68.88671875 20 70 C12.47761194 70.23880597 12.47761194 70.23880597 10 69 C9.58935547 67.14233398 9.58935547 67.14233398 9.3671875 64.74609375 C9.24150391 63.46508789 9.24150391 63.46508789 9.11328125 62.15820312 C9.03464844 61.26037109 8.95601562 60.36253906 8.875 59.4375 C8.78863281 58.53580078 8.70226562 57.63410156 8.61328125 56.70507812 C8.40048341 54.47070082 8.19645533 52.23586385 8 50 C7.74307373 51.43049683 7.74307373 51.43049683 7.48095703 52.88989258 C6.84317128 56.43026179 6.19617228 59.96889533 5.54638672 63.50708008 C5.26652762 65.03819798 4.98916389 66.56977418 4.71435547 68.10180664 C4.31874426 70.30480407 3.91416617 72.50599333 3.5078125 74.70703125 C3.3868924 75.39150833 3.26597229 76.07598541 3.14138794 76.78120422 C2.51644706 80.11723861 1.91468568 82.12797148 0 85 C-2.59009554 85.24950462 -4.9187129 85.32719737 -7.5 85.25 C-8.18964844 85.24484375 -8.87929687 85.2396875 -9.58984375 85.234375 C-14.69032948 85.15483526 -14.69032948 85.15483526 -17 84 C-14.65054068 70.35198326 -12.26335305 56.7203376 -9.3125 43.1875 C-9.11052002 42.25929443 -8.90854004 41.33108887 -8.70043945 40.37475586 C-7.6241905 35.52783179 -6.42135094 30.75730702 -5 26 C-2.69 26 -0.38 26 2 26 C-0.97 25.67 -3.94 25.34 -7 25 C-8 22 -8 22 -7.1875 19.875 C-6 18 -6 18 -4 17 C-3.1986381 14.14258915 -2.50291494 11.33288557 -1.875 8.4375 C-1.69324219 7.63119141 -1.51148438 6.82488281 -1.32421875 5.99414062 C-0.87532882 3.99776175 -0.43670257 1.9990802 0 0 Z " fill="#FFFFFF" transform="translate(172,187)"/>
<path d="M0 0 C4.72821781 3.88764576 6.66932036 7.2846114 7.40625 13.3359375 C7.81302117 23.80996397 6.19107228 33.82553558 4.1875 44.0625 C4.05698242 44.73408142 3.92646484 45.40566284 3.79199219 46.09759521 C-1.59690935 73.47752748 -1.59690935 73.47752748 -11 81 C-18.15152254 85.66071448 -25.66909084 85.95294598 -34 85 C-39.64765596 83.50866585 -42.8801836 80.56853972 -46.08984375 75.78125 C-50.86388714 66.43805778 -47.94013551 52.78451056 -46 43 C-45.3394207 40.99798116 -44.6716309 38.99833841 -44 37 C-43.53163927 35.22463854 -43.07737563 33.44553203 -42.6328125 31.6640625 C-42.26349609 30.19066406 -42.26349609 30.19066406 -41.88671875 28.6875 C-41.38118949 26.65501312 -40.88113561 24.6211561 -40.38671875 22.5859375 C-38.37437591 14.61997933 -36.44427135 7.13139571 -29.5625 2.0625 C-28.82128906 1.49660156 -28.08007812 0.93070313 -27.31640625 0.34765625 C-19.94367509 -3.94170673 -7.67442703 -3.35756183 0 0 Z M-18.5234375 16.0390625 C-21.26636255 19.3184587 -22.49961325 22.33303502 -23.625 26.375 C-23.8302832 27.07689453 -24.03556641 27.77878906 -24.24707031 28.50195312 C-27.66595705 40.50843727 -30.69190136 53.42544486 -30 66 C-28.81540637 68.02170589 -28.81540637 68.02170589 -27 69 C-24.26286235 68.86314312 -22.62106849 68.49464233 -20.46484375 66.77734375 C-12.49279171 57.10458728 -8.83976902 30.10859242 -10 18 C-11.19368767 15.66092879 -11.19368767 15.66092879 -13 14 C-16.15181477 13.68574738 -16.15181477 13.68574738 -18.5234375 16.0390625 Z " fill="#FFFFFF" transform="translate(270,188)"/>
<path d="M0 0 C1.06347656 -0.00257813 2.12695312 -0.00515625 3.22265625 -0.0078125 C5.9375 0.125 5.9375 0.125 7.9375 1.125 C7.43742814 11.52590296 5.16693038 21.58516874 3.0625 31.75 C2.35365426 35.19988824 1.64836222 38.65048864 0.9453125 42.1015625 C0.77453186 42.93810364 0.60375122 43.77464478 0.42779541 44.63653564 C-1.22020413 52.77492946 -2.65583022 60.94154373 -4.0625 69.125 C2.2075 69.455 8.4775 69.785 14.9375 70.125 C15.90327677 73.98810708 15.90261956 75.50176186 15.125 79.25 C14.95355469 80.11882812 14.78210938 80.98765625 14.60546875 81.8828125 C13.9375 84.125 13.9375 84.125 11.9375 86.125 C9.22439351 86.3124551 6.61520915 86.38065406 3.90234375 86.35546875 C2.71155968 86.35478142 2.71155968 86.35478142 1.49671936 86.3540802 C-0.18197117 86.35105765 -1.8606589 86.34317125 -3.53930664 86.33081055 C-6.11810158 86.31254885 -8.69653777 86.31030087 -11.27539062 86.31054688 C-12.90364896 86.30563196 -14.53190484 86.29980376 -16.16015625 86.29296875 C-17.32418724 86.29129951 -17.32418724 86.29129951 -18.51173401 86.28959656 C-23.94644993 86.24105007 -23.94644993 86.24105007 -25.0625 85.125 C-25.03241972 76.64021131 -23.00953233 68.25758868 -21.28088379 59.9911499 C-18.466243 46.52349353 -15.90696892 33.04073278 -13.74902344 19.45166016 C-11.48392365 5.61591199 -11.48392365 5.61591199 -9.0625 1.125 C-5.82377868 0.04542623 -3.40221795 -0.00826784 0 0 Z " fill="#FFFFFF" transform="translate(295.0625,185.875)"/>
<path d="M0 0 C5.61 0.33 11.22 0.66 17 1 C17.94569351 4.78277403 18.0076904 6.07223351 17.2578125 9.6953125 C17.07863281 10.57574219 16.89945313 11.45617187 16.71484375 12.36328125 C16.52019531 13.27464844 16.32554688 14.18601563 16.125 15.125 C15.84462891 16.50365234 15.84462891 16.50365234 15.55859375 17.91015625 C14.15472274 24.69055451 14.15472274 24.69055451 13 27 C10.27734375 27.4140625 10.27734375 27.4140625 6.9375 27.625 C5.83277344 27.69976562 4.72804687 27.77453125 3.58984375 27.8515625 C2.73519531 27.90054688 1.88054687 27.94953125 1 28 C2.66342837 29.66342837 4.7825709 29.36048097 7.0625 29.5625 C7.98160156 29.64628906 8.90070313 29.73007813 9.84765625 29.81640625 C10.91306641 29.90728516 10.91306641 29.90728516 12 30 C11.35721993 39.64170103 9.13778979 49.32776276 3 57 C2.46375 57.721875 1.9275 58.44375 1.375 59.1875 C-6.47597052 65.17903014 -17.05596291 64.43369531 -26.4296875 64.43945312 C-32.65062377 64.55363487 -35.91868135 65.12741927 -41 69 C-43.875 69.25 -43.875 69.25 -46 69 C-45.91256669 67.08249714 -45.8043811 65.16593335 -45.6875 63.25 C-45.62949219 62.18265625 -45.57148437 61.1153125 -45.51171875 60.015625 C-44.93231215 56.6011067 -44.6715106 55.22108149 -42 53 C-39.04441196 52.29615979 -36.08964085 52.11697475 -33.0625 51.9375 C-25.94620447 51.61395574 -25.94620447 51.61395574 -20 48 C-18.2675 47.814375 -18.2675 47.814375 -16.5 47.625 C-12.96185669 47.29966553 -12.96185669 47.29966553 -10.75 45.0625 C-6.54956297 37.71173519 -5.4199567 29.40993654 -4.08959961 21.15332031 C-3.54746822 17.83502928 -2.91757367 14.71761931 -1.97265625 11.48046875 C-0.71304882 7.30352803 -0.71304882 7.30352803 0 0 Z " fill="#FFFFFF" transform="translate(104,208)"/>
<path d="M0 0 C1.75570312 0.01353516 1.75570312 0.01353516 3.546875 0.02734375 C4.43890625 0.03894531 5.3309375 0.05054688 6.25 0.0625 C6.46560191 6.85396026 5.81364822 11.02608299 4.25 18.0625 C10.52 18.3925 16.79 18.7225 23.25 19.0625 C24.68713802 21.93677605 23.96220745 23.92180505 23.4375 27.0625 C23.26605469 28.135 23.09460938 29.2075 22.91796875 30.3125 C22.25 33.0625 22.25 33.0625 20.25 35.0625 C17.52514272 35.23767747 14.90340638 35.29399133 12.1796875 35.2578125 C11.38345978 35.2549826 10.58723206 35.25215271 9.76687622 35.24923706 C7.21943237 35.2380264 4.67233789 35.21292062 2.125 35.1875 C0.39974465 35.17747133 -1.32551619 35.16834528 -3.05078125 35.16015625 C-7.28398914 35.13808422 -11.5169353 35.10354867 -15.75 35.0625 C-16.84215453 30.95811281 -16.58134416 27.89178569 -15.7890625 23.73828125 C-15.56476563 22.54525391 -15.34046875 21.35222656 -15.109375 20.12304688 C-14.86703125 18.88619141 -14.6246875 17.64933594 -14.375 16.375 C-14.14039062 15.12654297 -13.90578125 13.87808594 -13.6640625 12.59179688 C-11.90524348 3.37298696 -11.90524348 3.37298696 -10.75 1.0625 C-7.2520607 -0.26171988 -3.69552923 -0.03695529 0 0 Z " fill="#FFFFFF" transform="translate(130.75,236.9375)"/>
<path d="M0 0 C5.69418113 0.54601737 11.33939082 1.16735168 17 2 C16.04989756 8.34174067 15.03978048 14.67236253 14 21 C13.81244141 22.15016602 13.62488281 23.30033203 13.43164062 24.48535156 C12.82702443 28.13946398 12.19761688 31.78857609 11.5625 35.4375 C11.36954346 36.61610596 11.17658691 37.79471191 10.9777832 39.0090332 C10.78015381 40.11851318 10.58252441 41.22799316 10.37890625 42.37109375 C10.2094751 43.36036865 10.04004395 44.34964355 9.86547852 45.36889648 C8.82788948 48.5232257 7.57707057 49.93650087 5 52 C0.0034468 53.15305074 -4.90168108 53.08944419 -10 53 C-9.05893652 38.41351611 -7.07737609 25.10468142 3 14 C1.35 12.68 -0.3 11.36 -2 10 C-1.34 6.7 -0.68 3.4 0 0 Z " fill="#FFFFFF" transform="translate(74,203)"/>
<path d="M0 0 C12.87 0 25.74 0 39 0 C37.76646707 13.56886228 37.76646707 13.56886228 35 16 C27.77448876 17.29833405 20.09736174 15.36581532 13 14 C12.01 16.31 11.02 18.62 10 21 C4.21408489 21.10477512 -1.29309366 20.99250545 -7 20 C-8.17937056 15.83035441 -7.7842897 13.29878952 -6.3125 9.25 C-5.97863281 8.28578125 -5.64476563 7.3215625 -5.30078125 6.328125 C-4 4 -4 4 -1.85546875 3.171875 C-1.24316406 3.11515625 -0.63085938 3.0584375 0 3 C0 2.01 0 1.02 0 0 Z " fill="#FFFFFF" transform="translate(130,187)"/>
<path d="M0 0 C11.52164009 -0.18451025 11.52164009 -0.18451025 17 1 C16.67 3.97 16.34 6.94 16 10 C21.28 10 26.56 10 32 10 C32.16160198 15.97927337 32.1053033 20.34717775 30 26 C26.22931943 26.08849232 22.45891235 26.14088454 18.6875 26.1875 C17.63498047 26.21263672 16.58246094 26.23777344 15.49804688 26.26367188 C8.19703914 26.33106579 1.9297755 25.29669107 -5 23 C-4.354523 15.09290669 -2.13002861 7.60866033 0 0 Z " fill="#FFFFFF" transform="translate(126,210)"/>
<path d="M0 0 C4.16148421 1.90766744 7.36988091 4.070216 9.48828125 8.21875 C9.80119601 11.91114418 9.72125417 15.52354066 9.48828125 19.21875 C7.40501994 19.24584444 5.32165684 19.26518873 3.23828125 19.28125 C1.49804688 19.29865234 1.49804688 19.29865234 -0.27734375 19.31640625 C-5.07209818 19.17163709 -5.07209818 19.17163709 -7.51171875 18.21875 C-7.94484375 17.414375 -8.37796875 16.61 -8.82421875 15.78125 C-11.14857195 12.25167662 -13.49044366 12.05335426 -17.51171875 11.21875 C-18.17171875 12.86875 -18.83171875 14.51875 -19.51171875 16.21875 C-25.72142648 16.55141291 -29.7943677 15.66904331 -35.51171875 13.21875 C-35.37038376 11.44755197 -35.22348667 9.67679713 -35.07421875 7.90625 C-34.99300781 6.92011719 -34.91179687 5.93398437 -34.828125 4.91796875 C-34.51171875 2.21875 -34.51171875 2.21875 -33.51171875 -0.78125 C-25.98245574 -4.54588151 -7.64173872 -2.37690162 0 0 Z " fill="#FFFFFF" transform="translate(107.51171875,185.78125)"/>
<path d="M0 0 C3.45631262 0.49375895 4.5074308 1.65241102 6.625 4.375 C9.54342172 13.53346815 7.53481553 24.83413261 3.7109375 33.4296875 C1.66983917 36.76514087 -0.74295424 38.95761629 -4.375 40.375 C-7.0625 40 -7.0625 40 -9.375 38.375 C-12.64632967 31.52078545 -12.44259093 22.23760394 -10.83984375 14.9375 C-9.05016266 9.93030483 -5.7601138 0.90949165 0 0 Z " fill="#FFFFFF" transform="translate(346.375,288.625)"/>
<path d="M0 0 C-0.20608235 2.73059108 -0.53156575 5.30755809 -1 8 C-1.15339844 8.92554688 -1.30679688 9.85109375 -1.46484375 10.8046875 C-2.27509484 14.0369324 -3.07250154 16.26653427 -5 19 C-10.17016052 21.98229991 -15.77320802 24.23272286 -21.81640625 23.796875 C-24 23 -24 23 -26 20 C-26.47766398 16.27627539 -26.23458461 14.4280445 -24.41796875 11.11328125 C-19.6692052 5.15029795 -16.13084107 1.73285728 -8.53125 0.28125 C-5.65723764 -0.03808471 -2.88665522 -0.23405313 0 0 Z " fill="#FFFFFF" transform="translate(40,250)"/>
<path d="M0 0 C-0.915222 4.379991 -2.32603526 6.28126609 -6 9 C-18.43680439 11.90192102 -29.41603793 8.13603916 -41 4 C-41 3.01 -41 2.02 -41 1 C-11.3919655 -6.75079437 -11.3919655 -6.75079437 0 0 Z " fill="#FFFFFF" transform="translate(63,178)"/>
<path d="M0 0 C6.75 2.875 6.75 2.875 9 4 C9 4.66 9 5.32 9 6 C9.99 6.33 10.98 6.66 12 7 C13.1556536 9.50287312 13.09533931 10.70595511 12.24316406 13.33422852 C11.83807617 14.17397217 11.43298828 15.01371582 11.015625 15.87890625 C10.57476562 16.79994141 10.13390625 17.72097656 9.6796875 18.66992188 C8.97199219 20.10174805 8.97199219 20.10174805 8.25 21.5625 C7.79367188 22.52091797 7.33734375 23.47933594 6.8671875 24.46679688 C2.83755841 32.77645108 2.83755841 32.77645108 0 35 C-2.6875 34.6875 -2.6875 34.6875 -5 34 C-4.52489131 22.59739155 -3.63243789 10.89731368 0 0 Z " fill="#FFFFFF" transform="translate(46,237)"/>
<path d="M0 0 C0 2 0 2 -2.6875 4.875 C-8.50896537 9.74212678 -16.49746119 12 -24 12 C-24 12.66 -24 13.32 -24 14 C-26.64738916 15.4606285 -27.89448334 16 -31 16 C-31 13.03 -31 10.06 -31 7 C-10.34529148 0 -10.34529148 0 0 0 Z " fill="#FFFFFF" transform="translate(65,188)"/>
<path d="M0 0 C5.17413071 0.6636974 10.18384597 1.63681683 15.25 2.875 C15.95640625 3.03613281 16.6628125 3.19726562 17.390625 3.36328125 C21.0240564 4.2509946 23.70986858 4.91713078 26 8 C24.24976105 10.22175281 23.39771408 10.94475643 20.5480957 11.34057617 C19.60023193 11.32486572 18.65236816 11.30915527 17.67578125 11.29296875 C16.64775391 11.28330078 15.61972656 11.27363281 14.56054688 11.26367188 C12.95276367 11.2259668 12.95276367 11.2259668 11.3125 11.1875 C10.22904297 11.17396484 9.14558594 11.16042969 8.02929688 11.14648438 C5.35265296 11.11111023 2.67626425 11.05730304 0 11 C0 7.37 0 3.74 0 0 Z " fill="#FFFFFF" transform="translate(16,214)"/>
<path d="M0 0 C5.445 1.485 5.445 1.485 11 3 C11.33 4.32 11.66 5.64 12 7 C9.30839061 11.26171487 5.27148935 15.27411535 1 18 C-0.32 18 -1.64 18 -3 18 C-2.8863485 15.37405216 -2.75960946 12.74988453 -2.625 10.125 C-2.5940625 9.37863281 -2.563125 8.63226563 -2.53125 7.86328125 C-2.2265625 2.2265625 -2.2265625 2.2265625 0 0 Z " fill="#FFFFFF" transform="translate(312,296)"/>
<path d="M0 0 C4.82819573 1.08647654 9.08242999 3.33111663 13.51171875 5.47265625 C16.65416177 6.97174583 19.60587764 8.23622933 23 9 C23 9.66 23 10.32 23 11 C20.79142945 10.85780436 18.58315013 10.71108153 16.375 10.5625 C15.14523437 10.48128906 13.91546875 10.40007812 12.6484375 10.31640625 C3.87751371 9.55575868 3.87751371 9.55575868 1.125 7.8125 C-0.49664405 5.19985125 -0.20031953 3.00479298 0 0 Z " fill="#FFFFFF" transform="translate(0,225)"/>
<path d="M0 0 C0.66 0 1.32 0 2 0 C3.03590199 5.05002222 3.10251672 9.87416389 3 15 C1.68 15 0.36 15 -1 15 C-1 15.66 -1 16.32 -1 17 C-2.32 17 -3.64 17 -5 17 C-4.46246904 10.81839396 -2.45417612 5.673142 0 0 Z " fill="#FFFFFF" transform="translate(396,288)"/>
<path d="M0 0 C0 0.66 0 1.32 0 2 C-2.07888712 3.47686988 -4.13283374 4.81395738 -6.3125 6.125 C-6.90740234 6.49753906 -7.50230469 6.87007812 -8.11523438 7.25390625 C-12.61661516 10 -12.61661516 10 -16 10 C-11.85069962 1.38222229 -9.66006688 -1.58361752 0 0 Z " fill="#FFFFFF" transform="translate(69,217)"/>
<path d="M0 0 C2.25 -0.3125 2.25 -0.3125 5 0 C7.3125 2.5 7.3125 2.5 9 5 C8.25 7.4375 8.25 7.4375 7 10 C4.921875 10.66015625 4.921875 10.66015625 3 11 C2.49384702 9.73160474 1.99530901 8.46016898 1.5 7.1875 C1.2215625 6.47980469 0.943125 5.77210938 0.65625 5.04296875 C0 3 0 3 0 0 Z " fill="#FFFFFF" transform="translate(2,213)"/>
<path d="M0 0 C2.0625 0.4375 2.0625 0.4375 4 1 C4.33 2.65 4.66 4.3 5 6 C3.35 6.33 1.7 6.66 0 7 C-0.38133299 5.0085944 -0.71325582 3.00720923 -1 1 C-0.67 0.67 -0.34 0.34 0 0 Z " fill="#FFFFFF" transform="translate(35,272)"/>
<path d="M0 0 C0 1.32 0 2.64 0 4 C-0.66 4 -1.32 4 -2 4 C-2 6.31 -2 8.62 -2 11 C-2.66 11 -3.32 11 -4 11 C-4.33 7.7 -4.66 4.4 -5 1 C-3 0 -3 0 0 0 Z " fill="#FFFFFF" transform="translate(411,306)"/>
<path d="M0 0 C0.66 0 1.32 0 2 0 C2 0.66 2 1.32 2 2 C1.34 2 0.68 2 0 2 C0 1.34 0 0.68 0 0 Z " fill="#FFFFFF" transform="translate(51,227)"/>
</svg>
