<?xml version="1.0" encoding="UTF-8"?>
<svg version="1.1" xmlns="http://www.w3.org/2000/svg" width="512" height="512">
<path d="M0 0 C0.99 0.495 0.99 0.495 2 1 C0.49336217 4.01327566 -2.03166411 4.61056618 -5 6 C-4.175 6.61875 -3.35 7.2375 -2.5 7.875 C-1.675 8.57625 -0.85 9.2775 0 10 C0 10.66 0 11.32 0 12 C0.66 12 1.32 12 2 12 C2.67408308 13.26691507 3.33900497 14.53870749 4 15.8125 C4.37125 16.52019531 4.7425 17.22789062 5.125 17.95703125 C6 20 6 20 6 23 C6.66 23 7.32 23 8 23 C8.96932858 27.86972213 9.15120386 32.49807249 9.125 37.4375 C9.12886719 38.16259766 9.13273438 38.88769531 9.13671875 39.63476562 C9.12853408 44.18953626 8.74598339 48.50633814 8 53 C7.34 53 6.68 53 6 53 C5.90589844 54.28261719 5.81179688 55.56523437 5.71484375 56.88671875 C4.98580336 64.15790363 3.49390662 71.27865693 2.04370117 78.43334961 C1.56031134 80.82332116 1.08732323 83.21519535 0.61523438 85.60742188 C0.30790874 87.14074881 -0.00001284 88.67395644 -0.30859375 90.20703125 C-0.44825058 90.91543655 -0.58790741 91.62384186 -0.73179626 92.35371399 C-1.49716832 96.09237372 -2.48584866 99.49987419 -4 103 C-4.70565711 105.22348562 -5.39241572 107.45303645 -6.0625 109.6875 C-7.89235127 115.78470255 -7.89235127 115.78470255 -9 118 C-7.72125 117.7834375 -6.4425 117.566875 -5.125 117.34375 C-3.41672174 117.06216567 -1.70838525 116.78093446 0 116.5 C0.83917969 116.35691406 1.67835938 116.21382813 2.54296875 116.06640625 C7.77182201 115.21519758 12.70275027 114.85285417 18 115 C18.58485051 118.62475679 19.16769032 122.2498342 19.75 125.875 C19.92829346 126.98294922 20.10658691 128.09089844 20.2902832 129.23242188 C21.26076593 135.28911826 22.20953078 141.34820019 23.12109375 147.4140625 C23.38937988 149.19321045 23.38937988 149.19321045 23.66308594 151.00830078 C24.00968343 153.31604628 24.35284453 155.62431079 24.69238281 157.93310547 C24.84932617 158.97611816 25.00626953 160.01913086 25.16796875 161.09375 C25.30485107 162.01865234 25.4417334 162.94355469 25.58276367 163.89648438 C25.79312727 165.97846676 25.79312727 165.97846676 27 167 C27.32814862 168.61396919 27.59982637 170.23947514 27.84790039 171.86767578 C28.00799088 172.90610626 28.16808136 173.94453674 28.33302307 175.01443481 C28.50285202 176.14662445 28.67268097 177.27881409 28.84765625 178.4453125 C29.02380966 179.60368622 29.19996307 180.76205994 29.38145447 181.95553589 C29.75418987 184.41502929 30.12477594 186.87484921 30.4934082 189.33496094 C31.05708969 193.08896842 31.63061967 196.84137849 32.20507812 200.59375 C32.56570549 202.9816801 32.92575015 205.36969828 33.28515625 207.7578125 C33.54293602 209.43787888 33.54293602 209.43787888 33.80592346 211.15188599 C34.59890102 216.49442821 35.21169472 221.59816805 35 227 C28.13944839 228.88713564 21.26410794 229.92847144 14.22265625 230.91015625 C13.01556503 231.08252304 11.80847382 231.25488983 10.56480408 231.43247986 C6.73125492 231.97979281 2.89698678 232.52179766 -0.9375 233.0625 C-6.0097991 233.77783636 -11.08129203 234.49853633 -16.15234375 235.22265625 C-17.91154396 235.46798851 -17.91154396 235.46798851 -19.70628357 235.71827698 C-20.78152786 235.87191208 -21.85677216 236.02554718 -22.96459961 236.18383789 C-23.91531845 236.31770401 -24.86603729 236.45157013 -25.8455658 236.5894928 C-27.97306621 236.78564667 -27.97306621 236.78564667 -29 238 C-30.70737698 238.32358273 -32.42570032 238.58965926 -34.14648438 238.83203125 C-35.24432251 238.98889404 -36.34216064 239.14575684 -37.4732666 239.30737305 C-38.66802612 239.47406494 -39.86278564 239.64075684 -41.09375 239.8125 C-42.31074585 239.98628174 -43.5277417 240.16006348 -44.78161621 240.33911133 C-49.35159653 240.99156805 -53.92261461 241.63657012 -58.49371338 242.28112793 C-62.96521349 242.91204631 -67.4358072 243.54914012 -71.90625 244.1875 C-73.10100952 244.35419189 -74.29576904 244.52088379 -75.5267334 244.69262695 C-76.62457153 244.84948975 -77.72240967 245.00635254 -78.85351562 245.16796875 C-79.8253479 245.30485107 -80.79718018 245.4417334 -81.79846191 245.58276367 C-83.96750783 245.77981696 -83.96750783 245.77981696 -85 247 C-86.92167259 247.35453775 -88.85411905 247.65085121 -90.7890625 247.92382812 C-92.0270459 248.10071167 -93.2650293 248.27759521 -94.54052734 248.45983887 C-95.20606628 248.55292831 -95.87160522 248.64601776 -96.55731201 248.7419281 C-98.6333466 249.0324179 -100.7085874 249.32806255 -102.78369141 249.62512207 C-107.93788543 250.36185482 -113.0933508 251.08953165 -118.2487793 251.81756592 C-122.60265535 252.43275661 -126.95602743 253.05130955 -131.30877686 253.67442322 C-133.35854362 253.96640584 -135.4089759 254.25335656 -137.45947266 254.54016113 C-139.31644775 254.80548645 -139.31644775 254.80548645 -141.2109375 255.07617188 C-142.30712402 255.23081909 -143.40331055 255.38546631 -144.53271484 255.5447998 C-146.9361108 255.74708441 -146.9361108 255.74708441 -148 257 C-149.67537927 257.32866694 -151.36203301 257.6001149 -153.05126953 257.84790039 C-154.12974152 258.00799088 -155.2082135 258.16808136 -156.31936646 258.33302307 C-157.49530365 258.50285202 -158.67124084 258.67268097 -159.8828125 258.84765625 C-161.08557831 259.02380966 -162.28834412 259.19996307 -163.52755737 259.38145447 C-166.0812181 259.754198 -168.63519456 260.12478371 -171.18945312 260.4934082 C-175.08826208 261.05718759 -178.98555853 261.63066021 -182.8828125 262.20507812 C-185.36189327 262.56569519 -187.84105742 262.92573957 -190.3203125 263.28515625 C-191.48410431 263.45700943 -192.64789612 263.62886261 -193.84695435 263.80592346 C-199.2854594 264.58369052 -204.50502043 265.21751993 -210 265 C-212.60128642 258.16626874 -213.87080749 251.4782133 -214.82421875 244.24609375 C-214.97534622 243.14580338 -215.12647369 242.045513 -215.28218079 240.91188049 C-215.59795113 238.59879887 -215.90950468 236.28513804 -216.21704102 233.97094727 C-216.68672998 230.44328336 -217.17141593 226.91791894 -217.65820312 223.39257812 C-217.96443109 221.13553716 -218.26979885 218.87837929 -218.57421875 216.62109375 C-218.71792404 215.57505478 -218.86162933 214.52901581 -219.00968933 213.45127869 C-219.73874037 207.91109298 -220.15210125 202.58774152 -220 197 C-220.66 197 -221.32 197 -222 197 C-222.71710766 191.69874348 -223.42902646 186.39682508 -224.13623047 181.09423828 C-224.37733178 179.29196553 -224.61982832 177.48987884 -224.86376953 175.68798828 C-225.21497251 173.09195321 -225.56108577 170.49528151 -225.90625 167.8984375 C-226.0156189 167.0982016 -226.12498779 166.2979657 -226.2376709 165.47348022 C-226.78965872 161.28087175 -227.11862356 157.24079241 -227 153 C-220.11616448 150.03178418 -213.40889235 148.97305023 -206.00390625 147.9921875 C-204.77461899 147.82123566 -203.54533173 147.65028381 -202.27879333 147.47415161 C-198.37450337 146.93239385 -194.46867948 146.40294664 -190.5625 145.875 C-186.63146956 145.33917389 -182.7010994 144.79867056 -178.77122498 144.25442505 C-176.33019193 143.91692168 -173.88851706 143.58402353 -171.44618225 143.256073 C-169.80328468 143.03046188 -169.80328468 143.03046188 -168.12719727 142.80029297 C-167.15871353 142.66944305 -166.1902298 142.53859314 -165.19239807 142.40377808 C-163.03091829 142.22003029 -163.03091829 142.22003029 -162 141 C-160.37893271 140.70123098 -158.74711841 140.46046148 -157.11303711 140.24389648 C-156.07203354 140.10382675 -155.03102997 139.96375702 -153.95848083 139.81944275 C-152.8262056 139.67148758 -151.69393036 139.52353241 -150.52734375 139.37109375 C-149.37456436 139.21713638 -148.22178497 139.06317902 -147.03407288 138.90455627 C-143.33573109 138.411564 -139.6366385 137.92447459 -135.9375 137.4375 C-133.43679748 137.1052049 -130.9361457 136.77252771 -128.43554688 136.43945312 C-122.29094748 135.62186011 -116.14572082 134.80911786 -110 134 C-110.95626472 129.00044012 -111.91668738 124.00170309 -112.88085938 119.00366211 C-113.20783152 117.30563632 -113.53369505 115.60739664 -113.85839844 113.90893555 C-114.32711442 111.45824111 -114.79990022 109.00836058 -115.2734375 106.55859375 C-115.41623138 105.80726669 -115.55902527 105.05593964 -115.70614624 104.28184509 C-116.58240964 99.7737942 -117.71266679 95.41257395 -119 91 C-119.31183748 89.53824285 -119.60028899 88.07103271 -119.8515625 86.59765625 C-120.04492188 85.48100586 -120.04492188 85.48100586 -120.2421875 84.34179688 C-120.36851562 83.58962891 -120.49484375 82.83746094 -120.625 82.0625 C-120.82609375 80.89364258 -120.82609375 80.89364258 -121.03125 79.70117188 C-121.3575968 77.80136729 -121.67928623 75.90076363 -122 74 C-122.19335938 75.01320313 -122.38671875 76.02640625 -122.5859375 77.0703125 C-122.84874923 78.42191568 -123.11178183 79.77347592 -123.375 81.125 C-123.50132812 81.79015625 -123.62765625 82.4553125 -123.7578125 83.140625 C-124.33230664 86.07054509 -124.96011808 88.88637241 -125.94970703 91.70581055 C-127.19998495 95.62724243 -127.93779686 99.52751396 -128.65625 103.57421875 C-128.95950207 105.22723801 -129.26289153 106.88023207 -129.56640625 108.53320312 C-130.03612282 111.12009442 -130.50356766 113.70736768 -130.96826172 116.29516602 C-131.42080136 118.80597753 -131.88180218 121.31512382 -132.34375 123.82421875 C-132.48026978 124.5992424 -132.61678955 125.37426605 -132.75744629 126.17277527 C-133.40887524 129.69081092 -133.98880257 131.98320386 -136 135 C-138.43017578 135.34057617 -138.43017578 135.34057617 -141.4453125 135.29296875 C-142.52167969 135.28330078 -143.59804688 135.27363281 -144.70703125 135.26367188 C-145.83496094 135.23853516 -146.96289062 135.21339844 -148.125 135.1875 C-149.26066406 135.17396484 -150.39632812 135.16042969 -151.56640625 135.14648438 C-154.37807387 135.11104319 -157.18880417 135.06163517 -160 135 C-159.4672236 128.35305386 -158.76248269 121.80990537 -157.5625 115.25 C-157.44068359 114.54746094 -157.31886719 113.84492188 -157.19335938 113.12109375 C-156.6292024 109.96999935 -155.99002362 106.96681582 -155.06616211 103.89379883 C-153.71242455 99.2256448 -152.94071502 94.46977363 -152.125 89.68359375 C-151.77606593 87.68293848 -151.42710684 85.68228757 -151.078125 83.68164062 C-150.53708656 80.55271697 -149.99759584 77.42353177 -149.45898438 74.29418945 C-148.93481806 71.25664566 -148.40511772 68.22010364 -147.875 65.18359375 C-147.71660645 64.25220078 -147.55821289 63.3208078 -147.39501953 62.3611908 C-146.58425428 57.72611584 -145.49922494 53.46613171 -144 49 C-143.35229162 45.95061087 -142.84879223 42.88050495 -142.34375 39.8046875 C-142.04043167 38.01951985 -141.73704419 36.23436395 -141.43359375 34.44921875 C-140.96432737 31.65380925 -140.49718018 28.85806052 -140.03173828 26.06201172 C-139.578598 23.35030238 -139.11777191 20.63998089 -138.65625 17.9296875 C-138.51973022 17.0942038 -138.38321045 16.25872009 -138.24255371 15.3979187 C-138.10901489 14.6167569 -137.97547607 13.83559509 -137.83789062 13.03076172 C-137.72401001 12.34714569 -137.61012939 11.66352966 -137.49279785 10.959198 C-137 9 -137 9 -135 5 C-128.4 5 -121.8 5 -115 5 C-113.62041616 9.82854343 -112.48807498 14.32392278 -111.59765625 19.2265625 C-111.41280922 20.23086807 -111.41280922 20.23086807 -111.22422791 21.25546265 C-110.83373415 23.37806203 -110.44761425 25.50141849 -110.0625 27.625 C-108.44990033 36.50613283 -106.77610625 45.33551318 -104.66455078 54.11547852 C-103.6055192 58.71226695 -102.79194961 63.35078992 -102 68 C-101.67 68 -101.34 68 -101 68 C-100.87882812 67.20335937 -100.75765625 66.40671875 -100.6328125 65.5859375 C-100.46523438 64.52632813 -100.29765625 63.46671875 -100.125 62.375 C-99.96257812 61.33085937 -99.80015625 60.28671875 -99.6328125 59.2109375 C-99 56 -99 56 -98.06396484 53.41943359 C-96.69488449 49.01940159 -96.03127518 44.62737501 -95.34375 40.078125 C-95.04051695 38.14711148 -94.73712693 36.21612261 -94.43359375 34.28515625 C-93.96347972 31.25481996 -93.49603357 28.22410448 -93.03173828 25.19287109 C-92.58020312 22.25765565 -92.11878708 19.32412369 -91.65625 16.390625 C-91.51973022 15.47919739 -91.38321045 14.56776978 -91.24255371 13.62872314 C-91.10901489 12.78734802 -90.97547607 11.9459729 -90.83789062 11.07910156 C-90.72401001 10.33774963 -90.61012939 9.59639771 -90.49279785 8.83258057 C-90 7 -90 7 -88 5 C-85.75341797 4.77294922 -85.75341797 4.77294922 -82.9921875 4.8046875 C-81.51298828 4.81435547 -81.51298828 4.81435547 -80.00390625 4.82421875 C-78.45509766 4.84935547 -78.45509766 4.84935547 -76.875 4.875 C-75.83472656 4.88402344 -74.79445313 4.89304687 -73.72265625 4.90234375 C-71.14820908 4.92596253 -68.57421788 4.95889851 -66 5 C-66.96355353 17.66970387 -66.96355353 17.66970387 -68 23 C-68.66 23 -69.32 23 -70 23 C-70.03230713 23.55840576 -70.06461426 24.11681152 -70.09790039 24.69213867 C-70.76672097 33.7582763 -72.37264319 42.64894781 -73.95629883 51.59008789 C-74.4392823 54.32258345 -74.91244759 57.05665865 -75.38476562 59.79101562 C-75.69212422 61.54437333 -76.00004705 63.29763223 -76.30859375 65.05078125 C-76.44825058 65.86025711 -76.58790741 66.66973297 -76.73179626 67.5037384 C-77.31651508 70.77380223 -77.94635092 73.83999169 -79.00439453 76.99560547 C-80.31453036 80.94914434 -80.95013862 84.91606399 -81.62109375 89.01953125 C-81.91980883 90.78192021 -82.21864062 92.54428938 -82.51757812 94.30664062 C-82.97840388 97.05763076 -83.43691701 99.80898112 -83.89282227 102.56079102 C-84.33778561 105.2356084 -84.79154074 107.90882927 -85.24609375 110.58203125 C-85.37745224 111.39170853 -85.50881073 112.2013858 -85.64414978 113.03559875 C-86.59273925 118.58501713 -88.11373821 123.69362595 -90 129 C-85.71 129 -81.42 129 -77 129 C-76.82984375 126.97359375 -76.82984375 126.97359375 -76.65625 124.90625 C-75.96872217 118.04065518 -74.73178717 111.28538759 -73.5 104.5 C-73.27441406 103.22640625 -73.04882812 101.9528125 -72.81640625 100.640625 C-71.12982766 91.25965532 -71.12982766 91.25965532 -70 89 C-69.63795869 87.33933297 -69.30789035 85.67155389 -69 84 C-68.8600914 83.2503447 -68.7201828 82.50068939 -68.57603455 81.72831726 C-68.43613602 80.95776505 -68.29623749 80.18721283 -68.15209961 79.39331055 C-67.99200912 78.51277512 -67.83191864 77.63223969 -67.66697693 76.72502136 C-67.41223351 75.32006157 -67.41223351 75.32006157 -67.15234375 73.88671875 C-66.97619034 72.91716751 -66.80003693 71.94761627 -66.61854553 70.94868469 C-66.05778282 67.86169818 -65.49763325 64.77460078 -64.9375 61.6875 C-64.5566811 59.59048744 -64.17582218 57.49348215 -63.79492188 55.39648438 C-62.86281752 50.26440703 -61.93121612 45.13223858 -61 40 C-60.34 40 -59.68 40 -59 40 C-58.95101562 39.34660645 -58.90203125 38.69321289 -58.8515625 38.02001953 C-58.2669556 30.89260308 -57.25168351 23.91345223 -56 16.875 C-55.73316406 15.31652344 -55.73316406 15.31652344 -55.4609375 13.7265625 C-54.12824901 6.12824901 -54.12824901 6.12824901 -53 5 C-51.63045142 4.89867886 -50.25584585 4.8643352 -48.88256836 4.8581543 C-48.00753159 4.85111984 -47.13249481 4.84408539 -46.23094177 4.83683777 C-45.27687943 4.83267349 -44.32281708 4.82850922 -43.33984375 4.82421875 C-41.32876576 4.80100417 -39.31769804 4.77688619 -37.30664062 4.75195312 C-34.12924507 4.71694522 -30.95222242 4.6875625 -27.7746582 4.67407227 C-24.71258847 4.65851905 -21.65161979 4.61824212 -18.58984375 4.57421875 C-17.64995102 4.57612717 -16.71005829 4.57803558 -15.74168396 4.58000183 C-9.3982611 4.46339414 -5.54377669 3.04409423 0 0 Z M-33 26 C-33.23187012 27.21059082 -33.46374023 28.42118164 -33.70263672 29.66845703 C-34.56702719 34.1755995 -35.43677125 38.68169523 -36.30810547 43.1875 C-36.68390804 45.13481118 -37.05827376 47.08240024 -37.43115234 49.03027344 C-37.96851763 51.83603672 -38.51110553 54.64074784 -39.0546875 57.4453125 C-39.21935516 58.31116974 -39.38402283 59.17702698 -39.55368042 60.06912231 C-40.42252717 64.52370493 -41.53193986 68.69825953 -43 73 C-44.00547092 77.43593826 -44.85694891 81.90111383 -45.71435547 86.36767578 C-46.12408843 88.49526658 -46.54407776 90.6206609 -46.96484375 92.74609375 C-47.22979054 94.11185829 -47.4941338 95.47774007 -47.7578125 96.84375 C-47.9964502 98.07287109 -48.23508789 99.30199219 -48.48095703 100.56835938 C-48.96638149 103.77773198 -49.09850469 106.76111624 -49 110 C-49.66 110 -50.32 110 -51 110 C-51 110.66 -51 111.32 -51 112 C-39.67176799 112.88353014 -39.67176799 112.88353014 -30 108 C-27.16178598 102.38940683 -25.80750683 96.61100836 -24.4375 90.5 C-24.02101367 88.67674407 -23.60307402 86.85381944 -23.18359375 85.03125 C-22.98354736 84.15992432 -22.78350098 83.28859863 -22.57739258 82.39086914 C-22.10177839 80.42144432 -21.54930819 78.47074421 -20.9765625 76.52734375 C-14.33848785 53.71830366 -14.33848785 53.71830366 -16.37109375 31.1953125 C-17.95873757 28.94358773 -17.95873757 28.94358773 -20 27 C-23.12196336 26.53513282 -23.12196336 26.53513282 -26.625 26.375 C-27.81351563 26.30023438 -29.00203125 26.22546875 -30.2265625 26.1484375 C-31.59941406 26.07496094 -31.59941406 26.07496094 -33 26 Z M-10 136.375 C-11.299375 136.75785156 -11.299375 136.75785156 -12.625 137.1484375 C-15.21577928 137.96956401 -15.21577928 137.96956401 -18 140 C-18.99 140.33 -19.98 140.66 -21 141 C-21.33 141.66 -21.66 142.32 -22 143 C-27.93418045 145.88761459 -33.50042757 146.30950345 -40 146 C-40 146.66 -40 147.32 -40 148 C-41 149 -42 150 -43 151 C-43 151.66 -43 152.32 -43 153 C-43.928125 153.28875 -44.85625 153.5775 -45.8125 153.875 C-49.09791667 154.8875 -49.09791667 154.8875 -52 157 C-50.91215032 160.24983135 -50.91215032 160.24983135 -49 163 C-47.33382885 163.04063832 -45.66611905 163.042721 -44 163 C-44.05985162 165.62748631 -44.14676224 168.24916995 -44.25 170.875 C-44.27126953 171.99455078 -44.27126953 171.99455078 -44.29296875 173.13671875 C-44.390625 175.3046875 -44.390625 175.3046875 -45 179 C-46.859375 180.4453125 -46.859375 180.4453125 -49 181 C-50.485 181.495 -50.485 181.495 -52 182 C-52.73323796 184.01508358 -52.73323796 184.01508358 -53 186 C-52.18273437 186.37253906 -51.36546875 186.74507812 -50.5234375 187.12890625 C-48 189 -48 189 -47.4765625 191.77734375 C-47.52554688 192.82019531 -47.57453125 193.86304688 -47.625 194.9375 C-47.65851563 195.97777344 -47.69203125 197.01804687 -47.7265625 198.08984375 C-48 201 -48 201 -48.51171875 202.96484375 C-49.20716228 205.8634524 -49.17070568 208.64904708 -49.1875 211.625 C-49.20167969 212.77226562 -49.21585938 213.91953125 -49.23046875 215.1015625 C-49.30529658 218.12725901 -49.30529658 218.12725901 -47 220 C-42.89894693 220.43574658 -42.89894693 220.43574658 -40.25 217.625 C-37.78306954 215.32313599 -37.78306954 215.32313599 -38 213 C-37.4225 212.7525 -36.845 212.505 -36.25 212.25 C-33.92205684 211.09855694 -33.92205684 211.09855694 -32.19921875 209.14453125 C-29.81632858 206.82089589 -27.38855486 205.18957562 -24.5625 203.4375 C-23.63566406 202.85871094 -22.70882812 202.27992188 -21.75390625 201.68359375 C-20.39072266 200.85021484 -20.39072266 200.85021484 -19 200 C-18.15695312 199.46503906 -17.31390625 198.93007813 -16.4453125 198.37890625 C-13.39114187 196.65666626 -10.34514857 195.79157136 -6.98828125 194.84375 C-4.64650589 194.06477744 -4.64650589 194.06477744 -3 191 C-2.83286431 188.37468476 -2.83286431 188.37468476 -3 186 C-9.08408472 185.80185739 -9.08408472 185.80185739 -15 187 C-15 187.66 -15 188.32 -15 189 C-15.54527344 189.14695312 -16.09054687 189.29390625 -16.65234375 189.4453125 C-23.65613903 191.52849263 -29.79723029 194.79723029 -35 200 C-37.125 200.625 -37.125 200.625 -39 201 C-38.69095829 198.72869344 -38.37765093 196.45796695 -38.0625 194.1875 C-37.88847656 192.92292969 -37.71445312 191.65835938 -37.53515625 190.35546875 C-37 187 -37 187 -36 184 C-32.4375 182.3125 -32.4375 182.3125 -29 181 C-29 180.34 -29 179.68 -29 179 C-28.29875 178.87625 -27.5975 178.7525 -26.875 178.625 C-20.96043434 177.33922486 -16.02234757 175.34823171 -11 172 C-9.69483958 170.04417253 -9.69483958 170.04417253 -10 168 C-11.1945517 166.26348199 -11.1945517 166.26348199 -13 165 C-18.6933576 164.91016398 -23.51669158 167.60157966 -27.98046875 170.87890625 C-30 172 -30 172 -36 173 C-35.67 167.72 -35.34 162.44 -35 157 C-31.90609218 155.96869739 -28.80959955 154.94252062 -25.6875 154 C-22.86445017 153.29749888 -22.86445017 153.29749888 -22 151 C-18.71860004 149.72265139 -15.42270016 148.57242406 -12.078125 147.47460938 C-7.32611215 145.81053135 -4.27614703 144.00489628 -1 140 C-1 139.34 -1 138.68 -1 138 C-1.66 138 -2.32 138 -3 138 C-2.67 137.01 -2.34 136.02 -2 135 C-5.02130417 135 -7.12302475 135.51019494 -10 136.375 Z M-84.1875 153.5625 C-85.15271693 155.02373118 -86.08896665 156.50438691 -87 158 C-87.78890625 159.18916016 -87.78890625 159.18916016 -88.59375 160.40234375 C-92.80025314 167.25853147 -94.2584706 173.86297817 -95.45703125 181.69140625 C-96 185 -96 185 -97 187 C-97.07033769 188.87379605 -97.0843022 190.75001102 -97.0625 192.625 C-97.05347656 193.62789062 -97.04445313 194.63078125 -97.03515625 195.6640625 C-97.02355469 196.43492187 -97.01195312 197.20578125 -97 198 C-97.99 198 -98.98 198 -100 198 C-100 198.66 -100 199.32 -100 200 C-102.9375 199.1875 -102.9375 199.1875 -106 198 C-107.17850208 194.46449375 -107.29527195 191.34666349 -107.5 187.625 C-107.7577147 182.53030171 -107.7577147 182.53030171 -108.50390625 177.49609375 C-109.41855022 172.89406624 -109.40316414 168.17462523 -109.62109375 163.49609375 C-109.95751774 160.39197548 -110.36507352 158.60132026 -112 156 C-115.33054374 155.86521513 -115.33054374 155.86521513 -119 157 C-122.68890556 161.00427831 -124.40536646 165.87439221 -126 171 C-126.474375 171.7425 -126.94875 172.485 -127.4375 173.25 C-129.33214906 176.58458235 -130.20804526 179.91187661 -131.25390625 183.5859375 C-132.18307979 186.59237335 -133.52358578 189.22434127 -135 192 C-138.28648325 199.05224531 -141.14644282 206.27048704 -143.984375 213.51171875 C-145.2731673 216.66925989 -146.73265816 219.73629109 -148.1953125 222.81640625 C-149.2305221 225.23768548 -149.2305221 225.23768548 -149 229 C-151.02045442 228.39816251 -153.02111039 227.72693904 -155 227 C-155.33 226.34 -155.66 225.68 -156 225 C-156.99 225 -157.98 225 -159 225 C-159 224.34 -159 223.68 -159 223 C-160.11375 222.34 -161.2275 221.68 -162.375 221 C-163.31472656 220.443125 -163.31472656 220.443125 -164.2734375 219.875 C-165.97472667 218.84931652 -165.97472667 218.84931652 -168 219 C-168 216.69 -168 214.38 -168 212 C-167.443125 211.773125 -166.88625 211.54625 -166.3125 211.3125 C-163.35308639 209.63283282 -161.37591214 207.43248148 -159 205 C-157.00334402 203.32932867 -155.00348966 201.66247014 -153 200 C-150.68581709 197.93832739 -150.68581709 197.93832739 -149 196 C-149 195.34 -149 194.68 -149 194 C-148.01 193.67 -147.02 193.34 -146 193 C-143.98355308 190.30061832 -143.98355308 190.30061832 -143 187 C-143.82979708 184.08921756 -143.82979708 184.08921756 -146 182 C-148.59122743 181.11341534 -148.59122743 181.11341534 -151 181 C-151 180.34 -151 179.68 -151 179 C-151.6290625 178.81824219 -152.258125 178.63648438 -152.90625 178.44921875 C-157.0653936 177.2277835 -161.15939933 175.98149202 -165.1875 174.375 C-167.79051378 173.35779021 -169.65327621 172.91834047 -172.5 172.5625 C-175.65708419 172.05511147 -177.21697664 171.47958288 -179.9375 170 C-183.98885363 167.81179334 -187.42736373 167.32661688 -192 167 C-192.99 169.475 -192.99 169.475 -194 172 C-193.34 172 -192.68 172 -192 172 C-192 172.66 -192 173.32 -192 174 C-189.69 174.66 -187.38 175.32 -185 176 C-185.14120016 178.58366245 -185.28778333 181.16682885 -185.4375 183.75 C-185.47681641 184.47960937 -185.51613281 185.20921875 -185.55664062 185.9609375 C-185.88942856 191.59273325 -185.88942856 191.59273325 -186.47485352 193.74902344 C-187.2557879 197.09640374 -187.45118126 200.48765041 -187.71875 203.90625 C-187.78155151 204.66796509 -187.84435303 205.42968018 -187.90905762 206.21447754 C-188.10918438 208.64274032 -188.30510824 211.07131179 -188.5 213.5 C-188.75664487 216.69823867 -189.01761016 219.89608119 -189.28125 223.09375 C-189.338573 223.82613892 -189.395896 224.55852783 -189.45495605 225.31311035 C-189.72999552 228.644621 -190.14854258 231.77170826 -191 235 C-191.03888349 237.33300933 -191.0448635 239.66709801 -191 242 C-190.34 242 -189.68 242 -189 242 C-189 242.66 -189 243.32 -189 244 C-186.56282742 243.72965366 -186.56282742 243.72965366 -184 243 C-182.04279623 240.06419434 -181.69804825 239.10177164 -181.3671875 235.76953125 C-181.28339844 234.96708984 -181.19960938 234.16464844 -181.11328125 233.33789062 C-181.03464844 232.50451172 -180.95601563 231.67113281 -180.875 230.8125 C-180.78863281 229.96751953 -180.70226562 229.12253906 -180.61328125 228.25195312 C-180.4014261 226.16871077 -180.19973223 224.08443958 -180 222 C-173.21107137 223.22200715 -169.81955223 226.18044777 -165 231 C-161.76338106 233.33084721 -161.76338106 233.33084721 -158 234 C-157.67 234.66 -157.34 235.32 -157 236 C-156.34 236 -155.68 236 -155 236 C-155 236.66 -155 237.32 -155 238 C-151.77208445 240.1519437 -150.71599191 240.20086443 -147 240 C-146.566875 239.0925 -146.13375 238.185 -145.6875 237.25 C-144 234 -144 234 -142.484375 232.109375 C-140.36626724 229.0994324 -139.79916741 225.97643911 -138.94140625 222.4375 C-137.76461451 219.39053715 -136.58739139 217.99934789 -134 216 C-130.80078125 214.98828125 -130.80078125 214.98828125 -127.3125 214.3125 C-123.33915936 213.82936029 -123.33915936 213.82936029 -120 212 C-117 211.875 -117 211.875 -114 212 C-111.72312123 214.27687877 -112.54265632 219.62322999 -112.37890625 222.703125 C-112.01469147 225.87216911 -111.49105746 228.18814424 -110 231 C-107.45224694 231.89386164 -107.45224694 231.89386164 -105 232 C-105 231.34 -105 230.68 -105 230 C-104.34 230 -103.68 230 -103 230 C-102.90233404 224.50564272 -102.90233404 224.50564272 -103.5 219.0625 C-104.15918254 215.02500691 -104.08161869 211.08093427 -104 207 C-102.35 206.67 -100.7 206.34 -99 206 C-98.01 209.465 -98.01 209.465 -97 213 C-96.34 213 -95.68 213 -95 213 C-94.938125 213.886875 -94.87625 214.77375 -94.8125 215.6875 C-93.81397923 219.75839238 -92.10938685 221.27928651 -89 224 C-88.67 224.33 -88.34 224.66 -88 225 C-85.89778307 225.09968672 -83.79207396 225.12968203 -81.6875 225.125 C-80.53636719 225.12757813 -79.38523437 225.13015625 -78.19921875 225.1328125 C-72.0224584 224.87639021 -67.94652262 223.10434878 -63.6875 218.5 C-61.72026357 216.08828102 -61.72026357 216.08828102 -62 213 C-61.34 213 -60.68 213 -60 213 C-59.80664062 212.39671875 -59.61328125 211.7934375 -59.4140625 211.171875 C-59.15367187 210.37265625 -58.89328125 209.5734375 -58.625 208.75 C-58.36976563 207.96109375 -58.11453125 207.1721875 -57.8515625 206.359375 C-57 204 -57 204 -55.90625 201.96875 C-54.87135294 199.72052535 -54.79307669 198.20769943 -54.875 195.75 C-54.91625 194.5125 -54.9575 193.275 -55 192 C-57.35367713 191.3121764 -57.35367713 191.3121764 -60 191 C-63.08621129 192.60684694 -63.08621129 192.60684694 -63.58984375 194.84765625 C-63.70457031 195.57855469 -63.81929687 196.30945313 -63.9375 197.0625 C-65.74076507 205.97864395 -68.48924776 211.26397516 -75.78125 216.8828125 C-78 218 -78 218 -80.1171875 217.8046875 C-83.28806087 216.44950095 -84.86233497 214.70020846 -87 212 C-89.20308062 205.78093656 -89.19079891 199.62422111 -88.75 193.125 C-88.71003906 192.28453125 -88.67007813 191.4440625 -88.62890625 190.578125 C-88.26346133 184.39519199 -88.26346133 184.39519199 -86 181 C-85.53922036 179.09105576 -85.07982384 177.18174641 -84.6328125 175.26953125 C-83.54023438 171.35108752 -81.98895723 167.55059944 -80 164 C-79.01 163.505 -79.01 163.505 -78 163 C-77.525625 162.195625 -77.05125 161.39125 -76.5625 160.5625 C-75 158 -75 158 -72 156 C-69.4375 155.75 -69.4375 155.75 -67 156 C-64.2173829 158.7826171 -64.59069336 161.10332225 -64.34375 164.90625 C-64.17368193 167.21512259 -64.17368193 167.21512259 -62 169 C-59.73725212 168.64644564 -58.04911148 168.02455574 -56 167 C-55.50519513 160.29264507 -55.56605798 154.40629773 -60 149 C-68.64524598 143.9700387 -77.91684015 145.52615435 -84.1875 153.5625 Z " fill="#FFFFFF" transform="translate(477,115)"/>
<path d="M0 0 C11.46188797 -0.109934 22.91827386 -0.07540416 34.375 0.3125 C35.78954468 0.34621704 35.78954468 0.34621704 37.23266602 0.38061523 C44.33735061 0.66098802 50.26877112 1.63293497 55.8125 6.4375 C63.32690164 15.24008478 62.69661089 23.84083887 62.25292969 35.10351562 C61.59630575 42.62300059 59.29098674 49.84066644 57 57 C56.34 57 55.68 57 55 57 C54.93425781 57.87011719 54.86851562 58.74023438 54.80078125 59.63671875 C53.80646714 63.81283803 52.10284531 65.69226951 49.1875 68.8125 C48.31480469 69.76769531 47.44210938 70.72289062 46.54296875 71.70703125 C44.05641803 73.94912844 43.1260569 74.39435497 40 75 C40.2784375 76.11375 40.556875 77.2275 40.84375 78.375 C41.88547603 83.05543103 42.57397758 87.75259083 43.21875 92.5 C43.32324463 93.26610596 43.42773926 94.03221191 43.53540039 94.8215332 C43.97087997 98.03531268 44.40176256 101.24962054 44.82275391 104.46533203 C45.13427205 106.83220809 45.45692624 109.19734972 45.78125 111.5625 C45.92040833 112.66078125 45.92040833 112.66078125 46.06237793 113.78125 C46.30608213 115.53180423 46.64419065 117.26874855 47 119 C47.66 119.33 48.32 119.66 49 120 C50.98 114.72 52.96 109.44 55 104 C55.66 104 56.32 104 57 104 C57.17015625 103.46632813 57.3403125 102.93265625 57.515625 102.3828125 C60.50519402 93.19147795 64.14517612 84.59371583 68.5390625 75.984375 C70.6113258 71.75119543 72.34168606 67.40916413 74 63 C74.66 63 75.32 63 76 63 C76.10828125 62.32324219 76.2165625 61.64648438 76.328125 60.94921875 C77.13204118 57.42040065 78.38943949 54.15429455 79.75 50.8125 C80.01804443 50.14758545 80.28608887 49.4826709 80.56225586 48.79760742 C82.42974084 44.23037069 84.51558717 39.82964096 86.7890625 35.44921875 C88.13858191 32.7197069 89.29163709 29.94586635 90.4375 27.125 C92.55487029 21.92842559 94.97199894 16.95628312 97.5703125 11.984375 C99.27599672 8.4238757 100.6137731 4.69660506 102 1 C110.25 1 118.5 1 127 1 C127.81789783 4.27159133 128.16310586 6.73534679 128.26538086 10.04772949 C128.31576004 11.57447548 128.31576004 11.57447548 128.36715698 13.13206482 C128.39939362 14.2428389 128.43163025 15.35361298 128.46484375 16.49804688 C128.50239777 17.67238785 128.53995178 18.84672882 128.5786438 20.05665588 C128.68081817 23.27344355 128.77919831 26.49032211 128.87617874 29.70726967 C128.97885922 33.07542881 129.08714978 36.44340669 129.19506836 39.81140137 C129.49175789 49.10229042 129.7797606 58.39344496 130.06770325 67.68460846 C130.33172333 76.20096768 130.5975745 84.71725911 130.87045002 93.23333979 C130.97765762 96.58569484 131.08298323 99.93808796 131.18405151 103.29063416 C131.29724503 107.02787229 131.41565017 110.76491231 131.53515625 114.50195312 C131.56739288 115.6127272 131.59962952 116.72350128 131.63284302 117.86793518 C131.6832222 119.39468117 131.6832222 119.39468117 131.73461914 120.95227051 C131.7618959 121.83568367 131.78917267 122.71909683 131.817276 123.62928009 C131.93114128 126.00273968 131.93114128 126.00273968 132.5790863 128.25298309 C132.71798782 128.82949867 132.85688934 129.40601425 133 130 C132 131 132 131 129.68334961 131.11352539 C128.68311768 131.10828857 127.68288574 131.10305176 126.65234375 131.09765625 C125.57275391 131.09443359 124.49316406 131.09121094 123.38085938 131.08789062 C122.24455078 131.07951172 121.10824219 131.07113281 119.9375 131.0625 C118.79732422 131.05798828 117.65714844 131.05347656 116.48242188 131.04882812 C113.65492582 131.0369976 110.82745655 131.0190615 108 131 C108 123.74 108 116.48 108 109 C98.43 109 88.86 109 79 109 C78.67 110.98 78.34 112.96 78 115 C77.40346332 117.36002101 76.6998627 119.66712432 76 122 C75.34 122 74.68 122 74 122 C73.87882812 122.63808594 73.75765625 123.27617187 73.6328125 123.93359375 C73.46523437 124.75988281 73.29765625 125.58617187 73.125 126.4375 C72.96257812 127.26121094 72.80015625 128.08492187 72.6328125 128.93359375 C72.42398438 129.61550781 72.21515625 130.29742187 72 131 C69.64145005 132.17927497 68.21183285 132.13283758 65.58203125 132.14526367 C64.66768311 132.15164352 63.75333496 132.15802338 62.8112793 132.16459656 C61.82168213 132.16570938 60.83208496 132.1668222 59.8125 132.16796875 C58.79905518 132.17129715 57.78561035 132.17462555 56.74145508 132.17805481 C54.59619603 132.18312315 52.45092909 132.18546316 50.30566406 132.18530273 C47.01354078 132.187491 43.72175152 132.20565268 40.4296875 132.22460938 C38.34895948 132.22754288 36.26822987 132.22952796 34.1875 132.23046875 C33.19790283 132.23765427 32.20830566 132.24483978 31.1887207 132.25224304 C30.27437256 132.24916641 29.36002441 132.24608978 28.41796875 132.24291992 C27.20790161 132.24505745 27.20790161 132.24505745 25.97338867 132.24723816 C24 132 24 132 22 130 C21.61436462 128.20970154 21.61436462 128.20970154 21.42163086 126.02514648 C21.34492661 125.20767441 21.26822235 124.39020233 21.18919373 123.54795837 C21.11515823 122.66459305 21.04112274 121.78122772 20.96484375 120.87109375 C20.83946983 119.51383934 20.83946983 119.51383934 20.71156311 118.12916565 C20.44508245 115.2326388 20.19055055 112.33522865 19.9375 109.4375 C19.67934021 106.53637846 19.41862687 103.63554513 19.15272522 100.73512268 C18.98755174 98.92822004 18.82715761 97.12087328 18.67185974 95.31309509 C18.67355731 91.32996378 18.67355731 91.32996378 17 88 C16.54540142 85.34536879 16.29756762 82.67810862 16 80 C14.02 80 12.04 80 10 80 C9.34472229 83.25471061 8.70802513 86.51204863 8.09204102 89.77441406 C7.13254063 94.84304224 6.16269633 99.90962662 5.18920898 104.97558594 C4.77014362 107.1651086 4.35414548 109.35522046 3.94116211 111.54589844 C3.34515809 114.70408089 2.73815985 117.8599755 2.12890625 121.015625 C1.94550186 122.00097229 1.76209747 122.98631958 1.57313538 124.00152588 C1.30792336 125.35863678 1.30792336 125.35863678 1.03735352 126.74316406 C0.88492691 127.54304749 0.73250031 128.34293091 0.57545471 129.16705322 C0.29060463 130.07436188 0.29060463 130.07436188 0 131 C-2.60951236 132.30475618 -4.52701285 132.11301572 -7.4453125 132.09765625 C-8.41484863 132.09515869 -9.38438477 132.09266113 -10.38330078 132.09008789 C-11.61806152 132.08098389 -12.85282227 132.07187988 -14.125 132.0625 C-20.003125 132.0315625 -20.003125 132.0315625 -26 132 C-24.35 121.77 -22.7 111.54 -21 101 C-20.34 101 -19.68 101 -19 101 C-18.96769287 100.35853027 -18.93538574 99.71706055 -18.90209961 99.05615234 C-18.30375861 89.96480168 -16.72427575 81.12855676 -15.04370117 72.18896484 C-14.55976492 69.61042677 -14.08689275 67.03002786 -13.61523438 64.44921875 C-13.30794049 62.79154626 -13.00002014 61.13398975 -12.69140625 59.4765625 C-12.55174942 58.71397125 -12.41209259 57.95138 -12.26820374 57.16567993 C-11.67218182 54.02096818 -11.02219267 51.06583734 -9.99780273 48.02685547 C-8.70359166 44.10083911 -8.03530416 40.16287995 -7.34375 36.09375 C-7.19595093 35.25082397 -7.04815186 34.40789795 -6.89587402 33.53942871 C-6.42623324 30.86035558 -5.96239241 28.18033304 -5.5 25.5 C-4.8906516 21.96781254 -4.27528971 18.43675039 -3.65625 14.90625 C-3.51973022 14.10296265 -3.38321045 13.29967529 -3.24255371 12.4720459 C-2.48581894 8.15968494 -1.51419489 4.12692332 0 0 Z M21 22 C19.82706111 28.3778552 18.70469162 34.50321562 19 41 C18.34 41 17.68 41 17 41 C16.34 46.61 15.68 52.22 15 58 C21.53757465 58.4460995 21.53757465 58.4460995 28 58 C34.32270005 51.89993023 38.32927228 42.2685192 38.6875 33.5625 C38.46256179 30.0966154 38.09748852 27.22689659 36.25 24.25 C31.36975598 20.87136952 26.75723632 21.50416147 21 22 Z M106 42 C102.80153337 49.21443271 100.13090619 56.61676397 97.40429688 64.01953125 C95.39218029 69.43755656 93.30068269 74.75065533 90.81225586 79.96923828 C89.75588516 82.43160906 89.75588516 82.43160906 89 87 C95.27 87.33 101.54 87.66 108 88 C108.143475 72.64817483 107.58859356 57.33943702 107 42 C106.67 42 106.34 42 106 42 Z " fill="#FFFFFF" transform="translate(181,119)"/>
<path d="M0 0 C59.36101396 0.9010767 59.36101396 0.9010767 84.08703613 1.44070435 C85.87420413 1.47958628 87.66139478 1.51744372 89.4486084 1.5541687 C98.09483973 1.73360124 106.73148536 1.98417879 115.3671875 2.45703125 C116.05992264 2.49280273 116.75265778 2.52857422 117.46638489 2.56542969 C122.55499058 2.86866483 127.57575409 3.29169993 132 6 C136 10.7804878 136 10.7804878 136 14 C136.66 14 137.32 14 138 14 C139.59245395 17.51827628 140.24261382 20.22697352 140.1953125 24.08203125 C140.18564453 25.47905273 140.18564453 25.47905273 140.17578125 26.90429688 C140.15064453 28.34385742 140.15064453 28.34385742 140.125 29.8125 C140.11597656 30.79154297 140.10695312 31.77058594 140.09765625 32.77929688 C140.07417182 35.18645061 140.0413284 37.59309743 140 40 C136.37506666 40.05787784 132.75025143 40.0935542 129.125 40.125 C128.09246094 40.14175781 127.05992187 40.15851563 125.99609375 40.17578125 C124.51689453 40.18544922 124.51689453 40.18544922 123.0078125 40.1953125 C121.64100342 40.21102295 121.64100342 40.21102295 120.24658203 40.22705078 C118 40 118 40 116 38 C115.54337847 35.80708918 115.179588 33.59414111 114.875 31.375 C114.70742187 30.18648437 114.53984375 28.99796875 114.3671875 27.7734375 C114.24601563 26.85820312 114.12484375 25.94296875 114 25 C108.89326207 24.0525365 108.89326207 24.0525365 103.8125 24.5 C97.33677084 29.85922414 95.61221577 36.70815446 93.75 44.5625 C93.36714844 46.08520508 93.36714844 46.08520508 92.9765625 47.63867188 C91.79424896 52.40215091 90.69825598 57.13714588 90 62 C89.34 62 88.68 62 88 62 C87.96261719 62.59941406 87.92523438 63.19882813 87.88671875 63.81640625 C87.28688147 72.0847515 86.20809199 80.25859351 85.01635742 88.46118164 C83.03300123 99.89569916 83.03300123 99.89569916 85.5 110.75 C89.15574835 112.57787418 92.18112389 111.8886231 96 111 C97.11375 110.773125 98.2275 110.54625 99.375 110.3125 C102.17708333 109.23958333 102.17708333 109.23958333 103.1875 106.625 C103.455625 105.42875 103.72375 104.2325 104 103 C104.51614345 100.89467802 105.0373517 98.79059391 105.5625 96.6875 C105.81128906 95.63949219 106.06007812 94.59148437 106.31640625 93.51171875 C107 91 107 91 108 90 C108.23287008 88.31816052 108.41264166 86.6287584 108.5625 84.9375 C108.64628906 84.01839844 108.73007813 83.09929687 108.81640625 82.15234375 C108.87699219 81.44207031 108.93757812 80.73179687 109 80 C108.01 80.495 108.01 80.495 107 81 C105.29297265 81.06996014 103.58331997 81.08440154 101.875 81.0625 C100.50988281 81.04896484 100.50988281 81.04896484 99.1171875 81.03515625 C98.06917969 81.01775391 98.06917969 81.01775391 97 81 C97 80.01 97 79.02 97 78 C97.66 78 98.32 78 99 78 C99.185625 76.2675 99.185625 76.2675 99.375 74.5 C99.84304804 70.13155165 100.90032989 66.39868045 102 62 C112.89 61.67 123.78 61.34 135 61 C134.20104397 68.98956028 133.06003233 76.65685386 131.52587891 84.50463867 C131.12530825 86.56091765 130.73610803 88.6191359 130.34765625 90.67773438 C127.40765022 106.00690733 123.66859998 120.65052001 110.1875 129.9375 C108 131 108 131 106 131 C106 131.66 106 132.32 106 133 C100.53595899 134.54019948 95.56922601 135.32182136 89.875 135.25 C89.09455322 135.24540771 88.31410645 135.24081543 87.51000977 135.23608398 C79.30685072 135.11870722 71.12201993 134.5964688 62.9375 134.0625 C62.26144714 134.01911499 61.58539429 133.97572998 60.88885498 133.93103027 C58.95547453 133.80471162 57.02264128 133.67010102 55.08984375 133.53515625 C53.96441162 133.456604 52.83897949 133.37805176 51.67944336 133.29711914 C49 133 49 133 47 132 C44.01599524 131.70234693 41.0451505 131.45520498 38.0546875 131.24609375 C37.1696756 131.18092056 36.2846637 131.11574738 35.37283325 131.04859924 C32.54049468 130.84093939 29.70777177 130.63915575 26.875 130.4375 C24.9570031 130.29791227 23.03903392 130.15794317 21.12109375 130.01757812 C16.41437291 129.67395608 11.70729906 129.33560422 7 129 C7.33 128.34 7.66 127.68 8 127 C36.215 126.505 36.215 126.505 65 126 C63.68 123.36 62.36 120.72 61 118 C61 117.34 61 116.68 61 116 C60.34 116 59.68 116 59 116 C58.67 115.01 58.34 114.02 58 113 C30.37929829 110.10309702 2.69300528 108.06527758 -25 106 C-25 105.34 -25 104.68 -25 104 C18.065 103.505 18.065 103.505 62 103 C60.35 102.67 58.7 102.34 57 102 C57.88930376 93.96487897 58.78860243 86.493261 62 79 C62.72736015 76.67958724 63.36414769 74.34776238 64 72 C63.35766418 72.01187347 62.71532837 72.02374695 62.05352783 72.03598022 C54.62256909 72.11198225 47.31988715 71.64197669 39.921875 70.9765625 C38.10565643 70.81720718 38.10565643 70.81720718 36.25274658 70.65463257 C33.7112483 70.43008853 31.16996907 70.20305227 28.62890625 69.97363281 C24.74810588 69.62482976 20.86635133 69.288556 16.984375 68.953125 C14.50514088 68.73252757 12.02597172 68.51119867 9.546875 68.2890625 C8.39257996 68.19001617 7.23828491 68.09096985 6.04901123 67.98892212 C0.4620759 67.47430186 -4.67839473 66.80161502 -10 65 C-10 64.34 -10 63.68 -10 63 C15.08 63 40.16 63 66 63 C66 62.01 66 61.02 66 60 C64.52406372 59.87939209 64.52406372 59.87939209 63.01831055 59.75634766 C59.36666704 59.45565232 55.71606726 59.14360514 52.06567383 58.828125 C50.48585739 58.69318944 48.90577499 58.56133082 47.32543945 58.43261719 C45.05342846 58.24703036 42.78260495 58.05038536 40.51171875 57.8515625 C39.45219246 57.76861435 39.45219246 57.76861435 38.3712616 57.68399048 C34.8202351 57.36187133 33.03316228 57.02210818 30 55 C30 54.34 30 53.68 30 53 C46.17 53 62.34 53 79 53 C75.04 52.67 71.08 52.34 67 52 C67.9375 42.89285714 67.9375 42.89285714 69 39 C69.66 39 70.32 39 71 39 C71.144375 37.72125 71.28875 36.4425 71.4375 35.125 C71.70642746 32.74307106 71.92226346 31.15547309 73 29 C71.82630859 28.90912109 71.82630859 28.90912109 70.62890625 28.81640625 C69.61699219 28.73261719 68.60507813 28.64882812 67.5625 28.5625 C66.04849609 28.44068359 66.04849609 28.44068359 64.50390625 28.31640625 C62 28 62 28 61 27 C58.71418612 26.62868018 56.41884471 26.31572545 54.12109375 26.02734375 C53.4344313 25.93997452 52.74776886 25.85260529 52.04029846 25.7625885 C49.83985058 25.48354795 47.63870909 25.21046431 45.4375 24.9375 C43.94851836 24.74973985 42.45958533 24.56159385 40.97070312 24.37304688 C37.31435617 23.91088038 33.65736418 23.45405462 30 23 C30 22.34 30 21.68 30 21 C30.5732753 21.00745743 31.1465506 21.01491486 31.73719788 21.02259827 C37.72413372 21.09160863 43.70880541 21.09741937 49.69604492 21.06713867 C51.92785162 21.06406344 54.1597409 21.07690456 56.39135742 21.10620117 C59.60749891 21.14562345 62.81899651 21.12710508 66.03515625 21.09765625 C67.02709488 21.12223404 68.01903351 21.14681183 69.04103088 21.1721344 C73.3903426 21.08268762 75.96730812 20.95920502 79.23605347 17.92306519 C80.98820998 15.68333443 82.54932679 13.44380545 84 11 C80.31784107 9.15892054 75.75808226 9.584971 71.67773438 9.39453125 C66.10073855 9.10073855 66.10073855 9.10073855 65 8 C63.09111159 7.79298643 61.17511575 7.65119854 59.25854492 7.53515625 C58.0302446 7.45837646 56.80194427 7.38159668 55.53642273 7.30249023 C54.87574987 7.26340546 54.21507702 7.22432068 53.53438377 7.18405151 C51.47041952 7.06190528 49.40687008 6.93416076 47.34333801 6.80493164 C42.9583707 6.53142184 38.57295867 6.26549519 34.1875 6 C29.11669882 5.69220774 24.04611031 5.38132757 18.97585487 5.06466675 C16.94422026 4.93912221 14.91234504 4.81819616 12.88041687 4.69750977 C11.64266006 4.62072998 10.40490326 4.5439502 9.12963867 4.46484375 C8.04011398 4.399021 6.95058929 4.33319824 5.82804871 4.26538086 C3.43469793 4.04079156 1.30116902 3.67025226 -1 3 C-0.67 2.01 -0.34 1.02 0 0 Z " fill="#FFFFFF" transform="translate(25,116)"/>
<path d="M0 0 C1.67542976 0.28604898 3.34385343 0.61781233 5 1 C5 1.66 5 2.32 5 3 C6.485 2.87625 6.485 2.87625 8 2.75 C12.63412067 2.71209308 16.07634666 4.71714715 20 7 C19.8125 9.8125 19.8125 9.8125 19 13 C16.6875 14.5625 16.6875 14.5625 14 16 C13.39929688 16.76570313 12.79859375 17.53140625 12.1796875 18.3203125 C9.83691573 21.20049428 7.44164187 23.14216077 4.4375 25.3125 C3.48746094 26.00988281 2.53742188 26.70726562 1.55859375 27.42578125 C-1 29 -1 29 -4 29 C-3.8897609 25.27024394 -3.75921587 21.54146417 -3.625 17.8125 C-3.5940625 16.75740234 -3.563125 15.70230469 -3.53125 14.61523438 C-3.49257813 13.59365234 -3.45390625 12.57207031 -3.4140625 11.51953125 C-3.3826416 10.58214111 -3.3512207 9.64475098 -3.31884766 8.67895508 C-2.94570815 5.54384034 -2.3047045 2.3047045 0 0 Z " fill="#FFFFFF" transform="translate(302,294)"/>
<path d="M0 0 C1.32 0.33 2.64 0.66 4 1 C5 6 5 6 6 11 C6.26876953 12.28970703 6.26876953 12.28970703 6.54296875 13.60546875 C7.16987797 16.89004439 7.37036895 19.66667942 7 23 C3.36439556 26.40104932 -2.12515538 27.45226465 -7 28 C-7.99 27.67 -8.98 27.34 -10 27 C-9.71640113 25.5608866 -9.42278601 24.12374482 -9.125 22.6875 C-8.96257812 21.88699219 -8.80015625 21.08648437 -8.6328125 20.26171875 C-8 18 -8 18 -6 15 C-6 14.34 -6 13.68 -6 13 C-5.34 13 -4.68 13 -4 13 C-3.79503906 12.22914063 -3.59007812 11.45828125 -3.37890625 10.6640625 C-3.10949219 9.66117187 -2.84007812 8.65828125 -2.5625 7.625 C-2.29566406 6.62726563 -2.02882813 5.62953125 -1.75390625 4.6015625 C-1 2 -1 2 0 0 Z " fill="#FFFFFF" transform="translate(356,293)"/>
<path d="M0 0 C3 1 3 1 3 1 Z " fill="#FFFFFF" transform="translate(326,353)"/>
<path d="" fill="#FFFFFF" transform="translate(0,0)"/>
<path d="M0 0 C0.66 0.66 1.32 1.32 2 2 C1.34 2 0.68 2 0 2 C0 1.34 0 0.68 0 0 Z " fill="#FFFFFF" transform="translate(428,275)"/>
<path d="M0 0 C2 1 2 1 2 1 Z " fill="#FFFFFF" transform="translate(312,344)"/>
<path d="M0 0 C2 1 2 1 2 1 Z " fill="#FFFFFF" transform="translate(391,338)"/>
<path d="M0 0 C2 1 2 1 2 1 Z " fill="#FFFFFF" transform="translate(406,336)"/>
<path d="" fill="#FFFFFF" transform="translate(0,0)"/>
<path d="M0 0 C2 1 2 1 2 1 Z " fill="#FFFFFF" transform="translate(471,302)"/>
<path d="M0 0 C2 1 2 1 2 1 Z " fill="#FFFFFF" transform="translate(455,290)"/>
<path d="M0 0 C2 1 2 1 2 1 Z " fill="#FFFFFF" transform="translate(285,283)"/>
<path d="M0 0 C2 1 2 1 2 1 Z " fill="#FFFFFF" transform="translate(462,261)"/>
<path d="M0 0 C2 1 2 1 2 1 Z " fill="#FFFFFF" transform="translate(471,257)"/>
<path d="" fill="#FFFFFF" transform="translate(0,0)"/>
<path d="" fill="#FFFFFF" transform="translate(0,0)"/>
</svg>
